<svg xmlns="http://www.w3.org/2000/svg" xmlns:svg="http://www.w3.org/2000/svg" id="svg2" width="88.804" height="39.775" version="1.1" viewBox="0 0 83.254 37.289"><metadata id="metadata7"/><g id="layer1" transform="translate(-152.81558,-394.39609)"><g id="flowRoot4136" fill="#000" fill-opacity="1" stroke="none" stroke-linecap="butt" stroke-linejoin="miter" stroke-opacity="1" stroke-width="1" font-family="DejaVu Sans" font-size="9.69" font-stretch="normal" font-style="normal" font-variant="normal" font-weight="normal" letter-spacing="0" text-anchor="start" transform="matrix(17.642001,0,0,17.642001,-2040.2735,-7634.6095)" word-spacing="0" writing-mode="lr-tb" style="line-height:125%;-inkscape-font-specification:'DejaVu Sans, Normal';text-align:start"><rect id="rect4139-4-8-8" width="4.719" height="2.114" x="138.651" y="456.033" fill="#82abc9" fill-opacity="1" fill-rule="evenodd" stroke="none" stroke-dasharray="none" stroke-dashoffset="0" stroke-linecap="round" stroke-linejoin="round" stroke-miterlimit="4" stroke-opacity="1" stroke-width="2" font-family="DejaVu Sans" font-size="9.69" font-stretch="normal" font-style="normal" font-variant="normal" font-weight="normal" letter-spacing="0" opacity="1" ry=".628" text-anchor="start" word-spacing="0" writing-mode="lr-tb" style="line-height:125%;-inkscape-font-specification:'DejaVu Sans, Normal';text-align:start"/><text id="text4141-6-7-3" x="139.5" y="457.601" fill="#fff" fill-opacity="1" stroke="none" stroke-linecap="butt" stroke-linejoin="miter" stroke-opacity="1" stroke-width="1" font-family="open sans" font-size="4.986" font-stretch="normal" font-style="normal" font-variant="normal" font-weight="normal" letter-spacing="0" text-anchor="start" word-spacing="0" writing-mode="lr-tb" xml:space="preserve" style="line-height:125%;-inkscape-font-specification:'open sans';text-align:start"><tspan id="tspan4143-2-2-5" x="139.5" y="457.601" font-size="1.429">2011</tspan></text><rect id="rect4139-4-8-8-9" width="4.719" height="2.114" x="124.311" y="455.107" fill="#82abc9" fill-opacity="1" fill-rule="evenodd" stroke="none" stroke-dasharray="none" stroke-dashoffset="0" stroke-linecap="round" stroke-linejoin="round" stroke-miterlimit="4" stroke-opacity="1" stroke-width="2" font-family="DejaVu Sans" font-size="9.69" font-stretch="normal" font-style="normal" font-variant="normal" font-weight="normal" letter-spacing="0" opacity="1" ry=".628" text-anchor="start" word-spacing="0" writing-mode="lr-tb" style="line-height:125%;-inkscape-font-specification:'DejaVu Sans, Normal';text-align:start"/><g id="text4141-6-7-3-3" fill="#fff" fill-opacity="1" stroke="none" stroke-linecap="butt" stroke-linejoin="miter" stroke-opacity="1" stroke-width="1" font-family="open sans" font-size="4.986" font-stretch="normal" font-style="normal" font-variant="normal" font-weight="normal" letter-spacing="0" text-anchor="start" word-spacing="0" writing-mode="lr-tb" style="line-height:125%;-inkscape-font-specification:'open sans';text-align:start"><path id="path4165" d="m 125.8998,456.6752 -0.67033,0 0,-0.0998 0.26855,-0.26994 q 0.12277,-0.12417 0.16183,-0.17718 0.0391,-0.053 0.0586,-0.10323 0.0195,-0.0502 0.0195,-0.10812 0,-0.0816 -0.0495,-0.12905 -0.0495,-0.0481 -0.13742,-0.0481 -0.0635,0 -0.12067,0.0209 -0.0565,0.0209 -0.12626,0.076 l -0.0614,-0.0788 q 0.1409,-0.11719 0.30692,-0.11719 0.14369,0 0.2253,0.0739 0.0816,0.0732 0.0816,0.19741 0,0.0969 -0.0544,0.19182 -0.0544,0.0949 -0.20369,0.23995 l -0.22321,0.21833 0,0.006 0.52455,0 0,0.10742 z" font-size="1.429"/><path id="path4167" d="m 126.7229,456.16391 q 0,0.26436 -0.0837,0.3948 -0.083,0.13044 -0.2546,0.13044 -0.16462,0 -0.25042,-0.13323 -0.0858,-0.13392 -0.0858,-0.39201 0,-0.26646 0.083,-0.39551 0.083,-0.12904 0.25321,-0.12904 0.16601,0 0.25181,0.13462 0.0865,0.13463 0.0865,0.38993 z m -0.55734,0 q 0,0.22251 0.0523,0.32435 0.0523,0.10114 0.16671,0.10114 0.11579,0 0.16741,-0.10253 0.0523,-0.10324 0.0523,-0.32296 0,-0.21973 -0.0523,-0.32157 -0.0516,-0.10254 -0.16741,-0.10254 -0.1144,0 -0.16671,0.10115 -0.0523,0.10044 -0.0523,0.32296 z" font-size="1.429"/><path id="path4169" d="m 127.29348,456.6752 -0.113,0 0,-0.72683 q 0,-0.0907 0.006,-0.1716 -0.0147,0.0147 -0.0328,0.0307 -0.0181,0.0161 -0.16602,0.13602 l -0.0614,-0.0795 0.26995,-0.20857 0.0977,0 0,1.0198 z" font-size="1.429"/><path id="path4171" d="m 128.111,456.6752 -0.11301,0 0,-0.72683 q 0,-0.0907 0.006,-0.1716 -0.0146,0.0147 -0.0328,0.0307 -0.0181,0.0161 -0.16601,0.13602 l -0.0614,-0.0795 0.26995,-0.20857 0.0977,0 0,1.0198 z" font-size="1.429"/></g></g></g></svg>