<svg xmlns="http://www.w3.org/2000/svg" xmlns:svg="http://www.w3.org/2000/svg" xmlns:xlink="http://www.w3.org/1999/xlink" id="svg2" width="10mm" height="10mm" version="1.1" viewBox="0 0 35.433 35.433"><defs id="defs4"><filter id="filter4250" width="1.158" height="1.158" x="-.079" y="-.079" color-interpolation-filters="sRGB"><feGaussianBlur id="feGaussianBlur4252" stdDeviation=".056"/></filter><filter id="filter4250-6" width="1.158" height="1.158" x="-.079" y="-.079" color-interpolation-filters="sRGB"><feGaussianBlur id="feGaussianBlur4252-6" stdDeviation=".056"/></filter><linearGradient id="linearGradient3353" x1="288.494" x2="288.494" y1="55.888" y2="339.222" gradientUnits="userSpaceOnUse" xlink:href="#SVGID_1_"/><linearGradient id="linearGradient3355" x1="251.211" x2="251.211" y1="55.888" y2="339.222" gradientUnits="userSpaceOnUse" xlink:href="#SVGID_2_"/><linearGradient id="linearGradient3357" x1="293.225" x2="293.225" y1="55.888" y2="339.222" gradientUnits="userSpaceOnUse" xlink:href="#SVGID_3_"/><linearGradient id="linearGradient3359" x1="375.334" x2="375.334" y1="55.888" y2="339.222" gradientUnits="userSpaceOnUse" xlink:href="#SVGID_4_"/><linearGradient id="linearGradient3361" x1="334.494" x2="334.494" y1="55.888" y2="339.222" gradientUnits="userSpaceOnUse" xlink:href="#SVGID_5_"/><linearGradient id="linearGradient3363" x1="458.427" x2="458.427" y1="55.887" y2="339.224" gradientUnits="userSpaceOnUse" xlink:href="#SVGID_6_"/><linearGradient id="linearGradient3365" x1="413.163" x2="413.163" y1="55.888" y2="339.221" gradientUnits="userSpaceOnUse" xlink:href="#SVGID_7_"/><linearGradient id="linearGradient3367" x1="290.762" x2="290.762" y1="55.887" y2="339.224" gradientUnits="userSpaceOnUse" xlink:href="#SVGID_8_"/><linearGradient id="linearGradient3369" x1="346.773" x2="346.773" y1="55.888" y2="339.221" gradientUnits="userSpaceOnUse" xlink:href="#SVGID_9_"/><linearGradient id="SVGID_1_" x1="288.494" x2="288.494" y1="55.888" y2="339.222" gradientUnits="userSpaceOnUse"><stop id="stop261" offset="0" stop-color="#BED5E1"/><stop id="stop263" offset="1" stop-color="#567B8F"/></linearGradient><linearGradient id="SVGID_2_" x1="251.211" x2="251.211" y1="55.888" y2="339.222" gradientUnits="userSpaceOnUse"><stop id="stop268" offset="0" stop-color="#BED5E1"/><stop id="stop270" offset="1" stop-color="#567B8F"/></linearGradient><linearGradient id="SVGID_3_" x1="293.225" x2="293.225" y1="55.888" y2="339.222" gradientUnits="userSpaceOnUse"><stop id="stop275" offset="0" stop-color="#BED5E1"/><stop id="stop277" offset="1" stop-color="#567B8F"/></linearGradient><linearGradient id="SVGID_4_" x1="375.334" x2="375.334" y1="55.888" y2="339.222" gradientUnits="userSpaceOnUse"><stop id="stop282" offset="0" stop-color="#BED5E1"/><stop id="stop284" offset="1" stop-color="#567B8F"/></linearGradient><linearGradient id="SVGID_5_" x1="334.494" x2="334.494" y1="55.888" y2="339.222" gradientUnits="userSpaceOnUse"><stop id="stop289" offset="0" stop-color="#BED5E1"/><stop id="stop291" offset="1" stop-color="#567B8F"/></linearGradient><linearGradient id="SVGID_6_" x1="458.427" x2="458.427" y1="55.887" y2="339.224" gradientUnits="userSpaceOnUse"><stop id="stop296" offset="0" stop-color="#BED5E1"/><stop id="stop298" offset="1" stop-color="#567B8F"/></linearGradient><linearGradient id="SVGID_7_" x1="413.163" x2="413.163" y1="55.888" y2="339.221" gradientUnits="userSpaceOnUse"><stop id="stop303" offset="0" stop-color="#BED5E1"/><stop id="stop305" offset="1" stop-color="#567B8F"/></linearGradient><linearGradient id="SVGID_8_" x1="290.762" x2="290.762" y1="55.887" y2="339.224" gradientUnits="userSpaceOnUse"><stop id="stop310" offset="0" stop-color="#BED5E1"/><stop id="stop312" offset="1" stop-color="#567B8F"/></linearGradient><linearGradient id="SVGID_9_" x1="346.773" x2="346.773" y1="55.888" y2="339.221" gradientUnits="userSpaceOnUse"><stop id="stop317" offset="0" stop-color="#BED5E1"/><stop id="stop319" offset="1" stop-color="#567B8F"/></linearGradient><linearGradient id="SVGID_1_-4" x1="479.694" x2="479.694" y1="-59.078" y2="-342.412" gradientTransform="matrix(1,0,0,-1,-191.2002,-3.189)" gradientUnits="userSpaceOnUse"><stop id="stop68" offset="0" stop-color="#BED5E1"/><stop id="stop70" offset="1" stop-color="#567B8F"/></linearGradient><linearGradient id="SVGID_2_-2" x1="442.411" x2="442.411" y1="-59.077" y2="-342.414" gradientTransform="matrix(1,0,0,-1,-191.2002,-3.189)" gradientUnits="userSpaceOnUse"><stop id="stop79" offset="0" stop-color="#BED5E1"/><stop id="stop81" offset="1" stop-color="#567B8F"/></linearGradient><linearGradient id="SVGID_3_-6" x1="484.425" x2="484.425" y1="-59.077" y2="-342.415" gradientTransform="matrix(1,0,0,-1,-191.2002,-3.189)" gradientUnits="userSpaceOnUse"><stop id="stop90" offset="0" stop-color="#BED5E1"/><stop id="stop92" offset="1" stop-color="#567B8F"/></linearGradient><linearGradient id="SVGID_4_-9" x1="566.533" x2="566.533" y1="-59.078" y2="-342.41" gradientTransform="matrix(1,0,0,-1,-191.2002,-3.189)" gradientUnits="userSpaceOnUse"><stop id="stop101" offset="0" stop-color="#BED5E1"/><stop id="stop103" offset="1" stop-color="#567B8F"/></linearGradient><linearGradient id="SVGID_5_-1" x1="525.692" x2="525.692" y1="-59.078" y2="-342.409" gradientTransform="matrix(1,0,0,-1,-191.2002,-3.189)" gradientUnits="userSpaceOnUse"><stop id="stop112" offset="0" stop-color="#BED5E1"/><stop id="stop114" offset="1" stop-color="#567B8F"/></linearGradient><linearGradient id="SVGID_6_-8" x1="649.626" x2="649.626" y1="-59.075" y2="-342.415" gradientTransform="matrix(1,0,0,-1,-191.2002,-3.189)" gradientUnits="userSpaceOnUse"><stop id="stop123" offset="0" stop-color="#BED5E1"/><stop id="stop125" offset="1" stop-color="#567B8F"/></linearGradient><linearGradient id="SVGID_7_-8" x1="604.362" x2="604.362" y1="-59.077" y2="-342.412" gradientTransform="matrix(1,0,0,-1,-191.2002,-3.189)" gradientUnits="userSpaceOnUse"><stop id="stop134" offset="0" stop-color="#BED5E1"/><stop id="stop136" offset="1" stop-color="#567B8F"/></linearGradient><linearGradient id="SVGID_8_-5" x1="481.962" x2="481.962" y1="-59.074" y2="-342.417" gradientTransform="matrix(1,0,0,-1,-191.2002,-3.189)" gradientUnits="userSpaceOnUse"><stop id="stop145" offset="0" stop-color="#BED5E1"/><stop id="stop147" offset="1" stop-color="#567B8F"/></linearGradient><linearGradient id="SVGID_9_-8" x1="537.974" x2="537.974" y1="-59.077" y2="-342.413" gradientTransform="matrix(1,0,0,-1,-191.2002,-3.189)" gradientUnits="userSpaceOnUse"><stop id="stop156" offset="0" stop-color="#BED5E1"/><stop id="stop158" offset="1" stop-color="#567B8F"/></linearGradient><linearGradient id="linearGradient3593" x1="481.962" x2="481.962" y1="-59.074" y2="-342.417" gradientTransform="matrix(1,0,0,-1,-191.2002,-3.189)" gradientUnits="userSpaceOnUse" xlink:href="#SVGID_8_-5"/><linearGradient id="linearGradient3595" x1="537.974" x2="537.974" y1="-59.077" y2="-342.413" gradientTransform="matrix(1,0,0,-1,-191.2002,-3.189)" gradientUnits="userSpaceOnUse" xlink:href="#SVGID_9_-8"/></defs><metadata id="metadata7"/><g id="layer1" transform="translate(-153.88228,-414.51976)"><g id="g4290"><g id="flowRoot4136-0" fill="#000" fill-opacity="1" stroke="none" stroke-linecap="butt" stroke-linejoin="miter" stroke-opacity="1" stroke-width="1" filter="url(#filter4250)" font-family="DejaVu Sans" font-size="9.69" font-stretch="normal" font-style="normal" font-variant="normal" font-weight="normal" letter-spacing="0" text-anchor="start" transform="matrix(17.642001,0,0,17.642001,-2039.9816,-7634.3176)" word-spacing="0" writing-mode="lr-tb" style="line-height:125%;-inkscape-font-specification:'DejaVu Sans, Normal';text-align:start"><ellipse id="path4154-1" cx="125.375" cy="457.252" fill="#fff" fill-opacity="1" fill-rule="evenodd" stroke="#000" stroke-dasharray="none" stroke-dashoffset="0" stroke-linecap="round" stroke-linejoin="round" stroke-miterlimit="4" stroke-opacity="1" stroke-width=".102" opacity="1" rx=".853" ry=".853"/></g><g id="flowRoot4136" fill="#fff" fill-opacity="1" stroke="#fff" stroke-linecap="butt" stroke-linejoin="miter" stroke-opacity="1" stroke-width="1" font-family="DejaVu Sans" font-size="9.69" font-stretch="normal" font-style="normal" font-variant="normal" font-weight="normal" letter-spacing="0" text-anchor="start" transform="matrix(17.642001,0,0,17.642001,-2040.2735,-7634.6095)" word-spacing="0" writing-mode="lr-tb" style="line-height:125%;-inkscape-font-specification:'DejaVu Sans, Normal';text-align:start"><ellipse id="path4154" cx="125.375" cy="457.252" fill="#fff" fill-opacity="1" fill-rule="evenodd" stroke="#fff" stroke-dasharray="none" stroke-dashoffset="0" stroke-linecap="round" stroke-linejoin="round" stroke-miterlimit="4" stroke-opacity="1" stroke-width=".102" opacity="1" rx=".853" ry=".853"/></g></g><g id="g4284"><g id="flowRoot4136-0-4" fill="#000" fill-opacity="1" stroke="none" stroke-linecap="butt" stroke-linejoin="miter" stroke-opacity="1" stroke-width="1" filter="url(#filter4250-6)" font-family="DejaVu Sans" font-size="9.69" font-stretch="normal" font-style="normal" font-variant="normal" font-weight="normal" letter-spacing="0" text-anchor="start" transform="matrix(17.642001,0,0,17.642001,-2123.0794,-7635.1966)" word-spacing="0" writing-mode="lr-tb" style="line-height:125%;-inkscape-font-specification:'DejaVu Sans, Normal';text-align:start"><ellipse id="path4154-1-4" cx="125.375" cy="457.252" fill="#fff" fill-opacity="1" fill-rule="evenodd" stroke="#000" stroke-dasharray="none" stroke-dashoffset="0" stroke-linecap="round" stroke-linejoin="round" stroke-miterlimit="4" stroke-opacity="1" stroke-width=".102" opacity="1" rx=".853" ry=".853"/></g><g id="flowRoot4136-4" fill="#fff" fill-opacity="1" stroke="#fff" stroke-linecap="butt" stroke-linejoin="miter" stroke-opacity="1" stroke-width="1" font-family="DejaVu Sans" font-size="9.69" font-stretch="normal" font-style="normal" font-variant="normal" font-weight="normal" letter-spacing="0" text-anchor="start" transform="matrix(17.642001,0,0,17.642001,-2123.3713,-7635.4885)" word-spacing="0" writing-mode="lr-tb" style="line-height:125%;-inkscape-font-specification:'DejaVu Sans, Normal';text-align:start"><ellipse id="path4154-4" cx="125.375" cy="457.252" fill="#fff" fill-opacity="1" fill-rule="evenodd" stroke="#fff" stroke-dasharray="none" stroke-dashoffset="0" stroke-linecap="round" stroke-linejoin="round" stroke-miterlimit="4" stroke-opacity="1" stroke-width=".102" opacity="1" rx=".853" ry=".853"/></g></g><g id="g4941" transform="matrix(0.10353768,0,0,0.10353768,158.7446,424.91425)"><g id="g3" transform="matrix(0.57360185,0,0,0.57360185,-41.33547,-23.095507)"><path id="path5" fill="#e76e34" d="m 97.312,249.795 c -13.578,0 -24.624,-11.046 -24.624,-24.624 0,-13.578 11.046,-24.624 24.624,-24.624 13.578,0 24.624,11.046 24.624,24.624 0,13.578 -11.046,24.624 -24.624,24.624 z m 0,-43.998 c -10.683,0 -19.374,8.691 -19.374,19.374 0,10.683 8.691,19.374 19.374,19.374 10.683,0 19.374,-8.691 19.374,-19.374 0,-10.683 -8.691,-19.374 -19.374,-19.374 z"/><path id="path7" fill="#e76e34" d="m 97.312,201.172 c 13.233,0 23.999,10.766 23.999,23.999 0,13.233 -10.766,23.999 -23.999,23.999 -13.233,0 -23.999,-10.766 -23.999,-23.999 0,-13.233 10.766,-23.999 23.999,-23.999 m 0,43.998 c 11.027,0 19.999,-8.972 19.999,-19.999 0,-11.027 -8.972,-19.999 -19.999,-19.999 -11.027,0 -19.999,8.972 -19.999,19.999 0,11.027 8.972,19.999 19.999,19.999 m 0,-45.248 c -13.922,0 -25.249,11.327 -25.249,25.249 0,13.922 11.327,25.249 25.249,25.249 13.922,0 25.249,-11.327 25.249,-25.249 0,-13.922 -11.327,-25.249 -25.249,-25.249 l 0,0 z m 0,43.998 c -10.338,0 -18.749,-8.411 -18.749,-18.749 0,-10.338 8.411,-18.749 18.749,-18.749 10.338,0 18.749,8.411 18.749,18.749 0,10.338 -8.411,18.749 -18.749,18.749 l 0,0 z"/></g><g id="g9" transform="matrix(0.57360185,0,0,0.57360185,-41.33547,-23.095507)"><path id="path11" fill="#567b8f" d="m 364.825,249.797 c -13.579,0 -24.626,-11.047 -24.626,-24.626 0,-13.579 11.047,-24.626 24.626,-24.626 13.579,0 24.626,11.047 24.626,24.626 0,13.579 -11.047,24.626 -24.626,24.626 z m 0,-44.002 c -10.684,0 -19.376,8.692 -19.376,19.376 0,10.684 8.692,19.376 19.376,19.376 10.684,0 19.376,-8.692 19.376,-19.376 0,-10.684 -8.692,-19.376 -19.376,-19.376 z"/><path id="path13" fill="#567b8f" d="m 364.825,201.17 c 13.234,0 24.001,10.767 24.001,24.001 0,13.234 -10.767,24.001 -24.001,24.001 -13.234,0 -24.001,-10.767 -24.001,-24.001 0,-13.234 10.767,-24.001 24.001,-24.001 m 0,44.002 c 11.028,0 20.001,-8.973 20.001,-20.001 0,-11.028 -8.973,-20.001 -20.001,-20.001 -11.028,0 -20.001,8.973 -20.001,20.001 0,11.028 8.973,20.001 20.001,20.001 m 0,-45.252 c -13.924,0 -25.251,11.327 -25.251,25.251 0,13.924 11.327,25.251 25.251,25.251 13.924,0 25.251,-11.327 25.251,-25.251 0,-13.924 -11.327,-25.251 -25.251,-25.251 l 0,0 z m 0,44.002 c -10.339,0 -18.751,-8.412 -18.751,-18.751 0,-10.339 8.412,-18.751 18.751,-18.751 10.339,0 18.751,8.412 18.751,18.751 0,10.339 -8.412,18.751 -18.751,18.751 l 0,0 z"/></g><g id="g15" transform="matrix(0.57360185,0,0,0.57360185,-41.33547,-23.095507)"><path id="path17" fill="#e76e34" d="m 149.436,249.788 c -9.235,0 -16.748,-7.513 -16.748,-16.748 l 0,-30.699 5.25,0 0,30.699 c 0,6.34 5.158,11.498 11.498,11.498 6.341,0 11.5,-5.158 11.5,-11.498 l 0,-30.699 5.25,0 0,30.699 c 0,9.235 -7.514,16.748 -16.75,16.748 z"/><path id="path19" fill="#e76e34" d="m 165.561,202.966 0,30.074 c 0,8.891 -7.234,16.123 -16.125,16.123 -8.89,0 -16.123,-7.232 -16.123,-16.123 l 0,-30.074 4,0 0,30.074 c 0,6.685 5.438,12.123 12.123,12.123 6.686,0 12.125,-5.438 12.125,-12.123 l 0,-30.074 4,0 m 1.25,-1.25 -1.25,0 -4,0 -1.25,0 0,1.25 0,30.074 c 0,5.995 -4.878,10.873 -10.875,10.873 -5.996,0 -10.873,-4.878 -10.873,-10.873 l 0,-30.074 0,-1.25 -1.25,0 -4,0 -1.25,0 0,1.25 0,30.074 c 0,9.579 7.793,17.373 17.373,17.373 9.581,0 17.375,-7.794 17.375,-17.373 l 0,-30.074 0,-1.25 0,0 z"/></g><g id="g21" transform="matrix(0.57360185,0,0,0.57360185,-41.33547,-23.095507)"><path id="path23" fill="#e76e34" d="m 177.686,249.788 c -9.236,0 -16.75,-7.513 -16.75,-16.748 l 0,-30.699 5.25,0 0,30.699 c 0,6.34 5.159,11.498 11.5,11.498 6.341,0 11.5,-5.158 11.5,-11.498 l 0,-30.699 5.25,0 0,30.699 c 0,9.235 -7.514,16.748 -16.75,16.748 z"/><path id="path25" fill="#e76e34" d="m 193.811,202.966 0,30.074 c 0,8.891 -7.233,16.123 -16.125,16.123 -8.892,0 -16.125,-7.232 -16.125,-16.123 l 0,-30.074 4,0 0,30.074 c 0,6.685 5.439,12.123 12.125,12.123 6.686,0 12.125,-5.438 12.125,-12.123 l 0,-30.074 4,0 m 1.25,-1.25 -1.25,0 -4,0 -1.25,0 0,1.25 0,30.074 c 0,5.995 -4.878,10.873 -10.875,10.873 -5.997,0 -10.875,-4.878 -10.875,-10.873 l 0,-30.074 0,-1.25 -1.25,0 -4,0 -1.25,0 0,1.25 0,30.074 c 0,9.579 7.794,17.373 17.375,17.373 9.581,0 17.375,-7.794 17.375,-17.373 l 0,-30.074 0,-1.25 0,0 z"/></g><g id="g27" transform="matrix(0.57360185,0,0,0.57360185,-41.33547,-23.095507)"><path id="path29" fill="#567b8f" d="m 333.701,249.788 c -9.235,0 -16.748,-7.513 -16.748,-16.748 l 0,-70.703 5.25,0 0,70.703 c 0,6.34 5.158,11.498 11.498,11.498 l 0.625,0 0,5.25 -0.625,0 z"/><path id="path31" fill="#567b8f" d="m 321.578,162.962 0,70.078 c 0,6.685 5.438,12.123 12.123,12.123 l 0,4 c -8.891,0 -16.123,-7.232 -16.123,-16.123 l 0,-70.078 4,0 m 1.25,-1.25 -1.25,0 -4,0 -1.25,0 0,1.25 0,70.078 c 0,9.579 7.794,17.373 17.373,17.373 l 1.25,0 0,-1.25 0,-4 0,-1.25 -1.25,0 c -5.995,0 -10.873,-4.878 -10.873,-10.873 l 0,-70.078 0,-1.25 0,0 z"/></g><g id="g33" transform="matrix(0.57360185,0,0,0.57360185,-41.33547,-23.095507)"><path id="path35" fill="#e76e34" d="m 249.694,247.794 0,-22.826 c 0,-10.684 -8.692,-19.375 -19.377,-19.375 -10.684,0 -19.375,8.691 -19.375,19.375 l 0,22.826 -5.25,0 0,-22.826 c 0,-13.578 11.047,-24.625 24.625,-24.625 13.58,0 24.627,11.047 24.627,24.625 l 0,22.826 -5.25,0 z"/><path id="path37" fill="#e76e34" d="m 230.317,200.968 c 13.235,0 24.002,10.767 24.002,24 l 0,22.201 -4,0 0,-22.201 c 0,-11.028 -8.973,-20 -20.002,-20 -11.028,0 -20,8.972 -20,20 l 0,22.201 -4,0 0,-22.201 c 0,-13.234 10.766,-24 24,-24 m 0,-1.25 c -13.923,0 -25.25,11.327 -25.25,25.25 l 0,22.201 0,1.25 1.25,0 4,0 1.25,0 0,-1.25 0,-22.201 c 0,-10.339 8.411,-18.75 18.75,-18.75 10.34,0 18.752,8.411 18.752,18.75 l 0,22.201 0,1.25 1.25,0 4,0 1.25,0 0,-1.25 0,-22.201 c 0,-13.923 -11.328,-25.25 -25.252,-25.25 l 0,0 z"/></g><g id="g39" transform="matrix(0.57360185,0,0,0.57360185,-41.33547,-23.095507)"><path id="path41" fill="#567b8f" d="m 423.322,249.794 c -13.578,0 -24.625,-11.046 -24.625,-24.623 l 0,-22.83 5.25,0 0,22.83 c 0,10.683 8.691,19.373 19.375,19.373 10.685,0 19.377,-8.69 19.377,-19.373 l 0,-22.83 5.25,0 0,22.83 c 0,13.577 -11.048,24.623 -24.627,24.623 z"/><path id="path43" fill="#567b8f" d="m 447.324,202.966 0,22.205 c 0,13.232 -10.768,23.998 -24.002,23.998 -13.233,0 -24,-10.766 -24,-23.998 l 0,-22.205 4,0 0,22.205 c 0,11.027 8.972,19.998 20,19.998 11.029,0 20.002,-8.971 20.002,-19.998 l 0,-22.205 4,0 m 1.25,-1.25 -1.25,0 -4,0 -1.25,0 0,1.25 0,22.205 c 0,10.338 -8.412,18.748 -18.752,18.748 -10.339,0 -18.75,-8.41 -18.75,-18.748 l 0,-22.205 0,-1.25 -1.25,0 -4,0 -1.25,0 0,1.25 0,22.205 c 0,13.922 11.327,25.248 25.25,25.248 13.924,0 25.252,-11.326 25.252,-25.248 l 0,-22.205 0,-1.25 0,0 z"/></g><g id="g45" transform="matrix(0.57360185,0,0,0.57360185,-41.33547,-23.095507)"><path id="path47" fill="#567b8f" d="m 303.146,249.794 c -20.838,0 -37.792,-16.952 -37.792,-37.789 0,-20.838 16.953,-37.791 37.792,-37.791 l 0.625,0 0,5.25 -0.625,0 c -17.943,0 -32.542,14.598 -32.542,32.541 0,17.942 14.598,32.539 32.542,32.539 l 0.625,0 0,5.25 -0.625,0 z"/><path id="path49" fill="#567b8f" d="m 303.146,174.839 0,4 c -18.288,0 -33.167,14.878 -33.167,33.166 0,18.287 14.878,33.164 33.167,33.164 l 0,4 c -20.494,0 -37.167,-16.672 -37.167,-37.164 0,-20.494 16.673,-37.166 37.167,-37.166 m 1.25,-1.25 -1.25,0 c -21.183,0 -38.417,17.233 -38.417,38.416 0,21.182 17.233,38.414 38.417,38.414 l 1.25,0 0,-1.25 0,-4 0,-1.25 -1.25,0 c -17.599,0 -31.917,-14.316 -31.917,-31.914 0,-17.599 14.318,-31.916 31.917,-31.916 l 1.25,0 0,-1.25 0,-4 0,-1.25 0,0 z"/></g><g id="g51" transform="matrix(0.57360185,0,0,0.57360185,-41.33547,-23.095507)"><rect id="rect53" width="5.25" height="41.422" x="501.971" y="162.337" fill="#567b8f"/><path id="path55" fill="#567b8f" d="m 506.596,162.962 0,40.172 -4,0 0,-40.172 4,0 m 1.25,-1.25 -1.25,0 -4,0 -1.25,0 0,1.25 0,40.172 0,1.25 1.25,0 4,0 1.25,0 0,-1.25 0,-40.172 0,-1.25 0,0 z"/></g><g id="g57" transform="matrix(0.57360185,0,0,0.57360185,-41.33547,-23.095507)"><path id="path59" fill="#567b8f" d="m 482.388,249.782 c -13.578,0 -24.625,-11.046 -24.625,-24.623 0,-13.578 11.047,-24.625 24.625,-24.625 l 24.815,-0.028 0.018,2.742 c 0.021,3.779 0.123,22.978 -10e-4,29.829 -0.169,9.254 -9.43,16.705 -16.983,16.705 l -7.849,0 z m 0.003,-43.998 c -10.686,0 -19.378,8.691 -19.378,19.375 0,10.683 8.691,19.373 19.375,19.373 l 7.849,0 c 5.079,0 11.622,-5.438 11.733,-11.551 0.11,-6.018 0.043,-21.628 0.014,-27.22 l -19.593,0.023 z"/><path id="path61" fill="#567b8f" d="m 506.582,201.132 0.013,1.989 c 10e-4,0.224 0.136,22.454 0,29.944 -0.163,8.914 -9.082,16.092 -16.358,16.092 l -7.849,0 c -13.233,0 -24,-10.766 -24,-23.998 0,-13.233 10.767,-24 24,-24 l 24.194,-0.027 m -24.194,44.025 7.849,0 c 5.35,0 12.241,-5.728 12.358,-12.164 0.112,-6.121 0.041,-22.212 0.011,-27.857 l -20.216,0.023 c -11.03,0 -20.002,8.972 -20.002,20 0,11.027 8.971,19.998 20,19.998 m 25.436,-45.276 -1.243,0.001 -24.194,0.027 c -13.922,0 -25.249,11.327 -25.249,25.25 0,13.922 11.327,25.248 25.25,25.248 l 7.849,0 c 7.832,0 17.433,-7.726 17.608,-17.319 0.124,-6.861 0.022,-26.066 10e-4,-29.847 l -10e-4,-0.126 -0.013,-1.991 -0.008,-1.243 0,0 z m -25.436,44.026 c -10.339,0 -18.75,-8.41 -18.75,-18.748 0,-10.339 8.412,-18.75 18.752,-18.75 l 18.973,-0.022 c 0.03,6.048 0.089,20.782 -0.018,26.584 -0.103,5.633 -6.345,10.937 -11.108,10.937 l -7.849,0 0,-10e-4 z"/></g><g id="g63" transform="matrix(0.57360185,0,0,0.57360185,-41.33547,-23.095507)"><g id="g65"><linearGradient id="linearGradient3214" x1="479.694" x2="479.694" y1="-59.078" y2="-342.412" gradientTransform="matrix(1,0,0,-1,-191.2002,-3.189)" gradientUnits="userSpaceOnUse"><stop id="stop3216" offset="0" stop-color="#BED5E1"/><stop id="stop3218" offset="1" stop-color="#567B8F"/></linearGradient><circle id="circle72" cx="288.494" cy="78.911" r="20.332" fill="url(#SVGID_1_-4)"/><path id="path74-9" fill="#fff" d="m 288.494,101.243 c -12.314,0 -22.332,-10.018 -22.332,-22.332 0,-12.314 10.018,-22.332 22.332,-22.332 12.313,0 22.332,10.018 22.332,22.332 0,12.314 -10.018,22.332 -22.332,22.332 z m 0,-40.664 c -10.108,0 -18.332,8.224 -18.332,18.332 0,10.108 8.224,18.332 18.332,18.332 10.108,0 18.332,-8.224 18.332,-18.332 0,-10.108 -8.223,-18.332 -18.332,-18.332 z"/></g><g id="g76"><linearGradient id="linearGradient3223" x1="442.411" x2="442.411" y1="-59.077" y2="-342.414" gradientTransform="matrix(1,0,0,-1,-191.2002,-3.189)" gradientUnits="userSpaceOnUse"><stop id="stop3225" offset="0" stop-color="#BED5E1"/><stop id="stop3227" offset="1" stop-color="#567B8F"/></linearGradient><circle id="circle83" cx="251.211" cy="149.577" r="37.242" fill="url(#SVGID_2_-2)"/><path id="path85" fill="#fff" d="m 251.211,188.819 c -21.638,0 -39.242,-17.604 -39.242,-39.242 0,-21.638 17.604,-39.242 39.242,-39.242 21.638,0 39.242,17.604 39.242,39.242 0,21.639 -17.604,39.242 -39.242,39.242 z m 0,-74.484 c -19.433,0 -35.242,15.81 -35.242,35.242 0,19.432 15.81,35.242 35.242,35.242 19.432,0 35.242,-15.81 35.242,-35.242 0,-19.432 -15.809,-35.242 -35.242,-35.242 z"/></g><g id="g87"><linearGradient id="linearGradient3232" x1="484.425" x2="484.425" y1="-59.077" y2="-342.415" gradientTransform="matrix(1,0,0,-1,-191.2002,-3.189)" gradientUnits="userSpaceOnUse"><stop id="stop3234" offset="0" stop-color="#BED5E1"/><stop id="stop3236" offset="1" stop-color="#567B8F"/></linearGradient><circle id="circle94" cx="293.225" cy="124.796" r="40.261" fill="url(#SVGID_3_-6)"/><path id="path96-4" fill="#fff" d="m 293.225,167.057 c -23.303,0 -42.261,-18.958 -42.261,-42.262 0,-23.303 18.958,-42.261 42.261,-42.261 23.303,0 42.261,18.958 42.261,42.261 0,23.304 -18.958,42.262 -42.261,42.262 z m 0,-80.522 c -21.097,0 -38.261,17.164 -38.261,38.261 0,21.098 17.164,38.262 38.261,38.262 21.097,0 38.261,-17.164 38.261,-38.262 0,-21.098 -17.164,-38.261 -38.261,-38.261 z"/></g><g id="g98"><linearGradient id="linearGradient3241" x1="566.533" x2="566.533" y1="-59.078" y2="-342.41" gradientTransform="matrix(1,0,0,-1,-191.2002,-3.189)" gradientUnits="userSpaceOnUse"><stop id="stop3243" offset="0" stop-color="#BED5E1"/><stop id="stop3245" offset="1" stop-color="#567B8F"/></linearGradient><circle id="circle105" cx="375.334" cy="108.472" r="37.242" fill="url(#SVGID_4_-9)"/><path id="path107" fill="#fff" d="m 375.334,147.714 c -21.639,0 -39.242,-17.604 -39.242,-39.241 0,-21.638 17.604,-39.242 39.242,-39.242 21.638,0 39.242,17.604 39.242,39.242 0,21.637 -17.603,39.241 -39.242,39.241 z m 0,-74.484 c -19.433,0 -35.242,15.81 -35.242,35.242 0,19.432 15.81,35.241 35.242,35.241 19.432,0 35.242,-15.809 35.242,-35.241 0,-19.432 -15.809,-35.242 -35.242,-35.242 z"/></g><g id="g109"><linearGradient id="linearGradient3250" x1="525.692" x2="525.692" y1="-59.078" y2="-342.409" gradientTransform="matrix(1,0,0,-1,-191.2002,-3.189)" gradientUnits="userSpaceOnUse"><stop id="stop3252" offset="0" stop-color="#BED5E1"/><stop id="stop3254" offset="1" stop-color="#567B8F"/></linearGradient><circle id="circle116" cx="334.493" cy="79.504" r="37.241" fill="url(#SVGID_5_-1)"/><path id="path118-3" fill="#fff" d="m 334.493,118.745 c -21.638,0 -39.241,-17.604 -39.241,-39.241 0,-21.637 17.604,-39.24 39.241,-39.24 21.637,0 39.241,17.603 39.241,39.24 0,21.637 -17.603,39.241 -39.241,39.241 z m 0,-74.482 c -19.432,0 -35.241,15.809 -35.241,35.24 0,19.432 15.81,35.241 35.241,35.241 19.431,0 35.241,-15.809 35.241,-35.241 0,-19.431 -15.809,-35.24 -35.241,-35.24 z"/></g><g id="g120"><linearGradient id="linearGradient3259" x1="649.626" x2="649.626" y1="-59.075" y2="-342.415" gradientTransform="matrix(1,0,0,-1,-191.2002,-3.189)" gradientUnits="userSpaceOnUse"><stop id="stop3261" offset="0" stop-color="#BED5E1"/><stop id="stop3263" offset="1" stop-color="#567B8F"/></linearGradient><circle id="circle127" cx="458.427" cy="163.958" r="21.3" fill="url(#SVGID_6_-8)"/><path id="path129" fill="#fff" d="m 458.427,187.258 c -12.848,0 -23.3,-10.452 -23.3,-23.3 0,-12.848 10.452,-23.3 23.3,-23.3 12.848,0 23.3,10.452 23.3,23.3 0,12.848 -10.453,23.3 -23.3,23.3 z m 0,-42.6 c -10.642,0 -19.3,8.658 -19.3,19.3 0,10.642 8.658,19.3 19.3,19.3 10.642,0 19.3,-8.658 19.3,-19.3 0,-10.642 -8.659,-19.3 -19.3,-19.3 z"/></g><g id="g131"><linearGradient id="linearGradient3268" x1="604.362" x2="604.362" y1="-59.077" y2="-342.412" gradientTransform="matrix(1,0,0,-1,-191.2002,-3.189)" gradientUnits="userSpaceOnUse"><stop id="stop3270" offset="0" stop-color="#BED5E1"/><stop id="stop3272" offset="1" stop-color="#567B8F"/></linearGradient><circle id="circle138" cx="413.163" cy="147.563" r="40.261" fill="url(#SVGID_7_-8)"/><path id="path140-5" fill="#fff" d="m 413.163,189.824 c -23.303,0 -42.261,-18.958 -42.261,-42.261 0,-23.303 18.958,-42.262 42.261,-42.262 23.303,0 42.261,18.958 42.261,42.262 0,23.303 -18.958,42.261 -42.261,42.261 z m 0,-80.522 c -21.097,0 -38.261,17.164 -38.261,38.262 0,21.097 17.164,38.261 38.261,38.261 21.097,0 38.261,-17.164 38.261,-38.261 0,-21.098 -17.164,-38.262 -38.261,-38.262 z"/></g><g id="g142"><linearGradient id="linearGradient3277" x1="481.962" x2="481.962" y1="-59.074" y2="-342.417" gradientTransform="matrix(1,0,0,-1,-191.2002,-3.189)" gradientUnits="userSpaceOnUse"><stop id="stop3279" offset="0" stop-color="#BED5E1"/><stop id="stop3281" offset="1" stop-color="#567B8F"/></linearGradient><circle id="circle149" cx="290.762" cy="166.011" r="21.299" fill="url(#linearGradient3593)"/><path id="path151" fill="#fff" d="m 290.762,189.31 c -12.847,0 -23.299,-10.452 -23.299,-23.3 0,-12.847 10.452,-23.299 23.299,-23.299 12.847,0 23.298,10.452 23.298,23.299 10e-4,12.848 -10.451,23.3 -23.298,23.3 z m 0,-42.598 c -10.642,0 -19.299,8.657 -19.299,19.299 0,10.642 8.658,19.3 19.299,19.3 10.641,0 19.298,-8.658 19.298,-19.3 0,-10.642 -8.657,-19.299 -19.298,-19.299 z"/></g><g id="g153"><linearGradient id="linearGradient3286" x1="537.974" x2="537.974" y1="-59.077" y2="-342.413" gradientTransform="matrix(1,0,0,-1,-191.2002,-3.189)" gradientUnits="userSpaceOnUse"><stop id="stop3288" offset="0" stop-color="#BED5E1"/><stop id="stop3290" offset="1" stop-color="#567B8F"/></linearGradient><path id="path160-8" fill="url(#linearGradient3595)" d="m 398.107,135.669 c 0,28.349 -22.984,51.328 -51.334,51.328 -28.351,0 -51.333,-22.979 -51.333,-51.328 0,-28.351 22.984,-51.333 51.333,-51.333 28.349,0 51.334,22.982 51.334,51.333 z"/><path id="path162-2" fill="#fff" d="m 346.773,188.997 c -29.408,0 -53.333,-23.923 -53.333,-53.328 0,-29.408 23.925,-53.333 53.333,-53.333 29.408,0 53.334,23.925 53.334,53.333 0,29.405 -23.925,53.328 -53.334,53.328 z m 0,-102.661 c -27.202,0 -49.333,22.131 -49.333,49.333 0,27.199 22.131,49.328 49.333,49.328 27.203,0 49.334,-22.129 49.334,-49.328 0,-27.202 -22.13,-49.333 -49.334,-49.333 z"/></g></g></g></g></svg>