<svg xmlns="http://www.w3.org/2000/svg" xmlns:svg="http://www.w3.org/2000/svg" xmlns:xlink="http://www.w3.org/1999/xlink" id="svg2" width="10mm" height="10mm" version="1.1" viewBox="0 0 35.433 35.433"><defs id="defs4"><filter id="filter4250" width="1.158" height="1.158" x="-.079" y="-.079" color-interpolation-filters="sRGB"><feGaussianBlur id="feGaussianBlur4252" stdDeviation=".056"/></filter><filter id="filter4250-6" width="1.158" height="1.158" x="-.079" y="-.079" color-interpolation-filters="sRGB"><feGaussianBlur id="feGaussianBlur4252-6" stdDeviation=".056"/></filter><linearGradient id="linearGradient3353" x1="288.494" x2="288.494" y1="55.888" y2="339.222" gradientUnits="userSpaceOnUse" xlink:href="#SVGID_1_"/><linearGradient id="linearGradient3355" x1="251.211" x2="251.211" y1="55.888" y2="339.222" gradientUnits="userSpaceOnUse" xlink:href="#SVGID_2_"/><linearGradient id="linearGradient3357" x1="293.225" x2="293.225" y1="55.888" y2="339.222" gradientUnits="userSpaceOnUse" xlink:href="#SVGID_3_"/><linearGradient id="linearGradient3359" x1="375.334" x2="375.334" y1="55.888" y2="339.222" gradientUnits="userSpaceOnUse" xlink:href="#SVGID_4_"/><linearGradient id="linearGradient3361" x1="334.494" x2="334.494" y1="55.888" y2="339.222" gradientUnits="userSpaceOnUse" xlink:href="#SVGID_5_"/><linearGradient id="linearGradient3363" x1="458.427" x2="458.427" y1="55.887" y2="339.224" gradientUnits="userSpaceOnUse" xlink:href="#SVGID_6_"/><linearGradient id="linearGradient3365" x1="413.163" x2="413.163" y1="55.888" y2="339.221" gradientUnits="userSpaceOnUse" xlink:href="#SVGID_7_"/><linearGradient id="linearGradient3367" x1="290.762" x2="290.762" y1="55.887" y2="339.224" gradientUnits="userSpaceOnUse" xlink:href="#SVGID_8_"/><linearGradient id="linearGradient3369" x1="346.773" x2="346.773" y1="55.888" y2="339.221" gradientUnits="userSpaceOnUse" xlink:href="#SVGID_9_"/><linearGradient id="SVGID_1_" x1="288.494" x2="288.494" y1="55.888" y2="339.222" gradientUnits="userSpaceOnUse"><stop id="stop261" offset="0" stop-color="#BED5E1"/><stop id="stop263" offset="1" stop-color="#567B8F"/></linearGradient><linearGradient id="SVGID_2_" x1="251.211" x2="251.211" y1="55.888" y2="339.222" gradientUnits="userSpaceOnUse"><stop id="stop268" offset="0" stop-color="#BED5E1"/><stop id="stop270" offset="1" stop-color="#567B8F"/></linearGradient><linearGradient id="SVGID_3_" x1="293.225" x2="293.225" y1="55.888" y2="339.222" gradientUnits="userSpaceOnUse"><stop id="stop275" offset="0" stop-color="#BED5E1"/><stop id="stop277" offset="1" stop-color="#567B8F"/></linearGradient><linearGradient id="SVGID_4_" x1="375.334" x2="375.334" y1="55.888" y2="339.222" gradientUnits="userSpaceOnUse"><stop id="stop282" offset="0" stop-color="#BED5E1"/><stop id="stop284" offset="1" stop-color="#567B8F"/></linearGradient><linearGradient id="SVGID_5_" x1="334.494" x2="334.494" y1="55.888" y2="339.222" gradientUnits="userSpaceOnUse"><stop id="stop289" offset="0" stop-color="#BED5E1"/><stop id="stop291" offset="1" stop-color="#567B8F"/></linearGradient><linearGradient id="SVGID_6_" x1="458.427" x2="458.427" y1="55.887" y2="339.224" gradientUnits="userSpaceOnUse"><stop id="stop296" offset="0" stop-color="#BED5E1"/><stop id="stop298" offset="1" stop-color="#567B8F"/></linearGradient><linearGradient id="SVGID_7_" x1="413.163" x2="413.163" y1="55.888" y2="339.221" gradientUnits="userSpaceOnUse"><stop id="stop303" offset="0" stop-color="#BED5E1"/><stop id="stop305" offset="1" stop-color="#567B8F"/></linearGradient><linearGradient id="SVGID_8_" x1="290.762" x2="290.762" y1="55.887" y2="339.224" gradientUnits="userSpaceOnUse"><stop id="stop310" offset="0" stop-color="#BED5E1"/><stop id="stop312" offset="1" stop-color="#567B8F"/></linearGradient><linearGradient id="SVGID_9_" x1="346.773" x2="346.773" y1="55.888" y2="339.221" gradientUnits="userSpaceOnUse"><stop id="stop317" offset="0" stop-color="#BED5E1"/><stop id="stop319" offset="1" stop-color="#567B8F"/></linearGradient><linearGradient id="SVGID_1_-4" x1="479.694" x2="479.694" y1="-59.078" y2="-342.412" gradientTransform="matrix(1,0,0,-1,-191.2002,-3.189)" gradientUnits="userSpaceOnUse"><stop id="stop68" offset="0" stop-color="#BED5E1"/><stop id="stop70" offset="1" stop-color="#567B8F"/></linearGradient><linearGradient id="SVGID_2_-2" x1="442.411" x2="442.411" y1="-59.077" y2="-342.414" gradientTransform="matrix(1,0,0,-1,-191.2002,-3.189)" gradientUnits="userSpaceOnUse"><stop id="stop79" offset="0" stop-color="#BED5E1"/><stop id="stop81" offset="1" stop-color="#567B8F"/></linearGradient><linearGradient id="SVGID_3_-6" x1="484.425" x2="484.425" y1="-59.077" y2="-342.415" gradientTransform="matrix(1,0,0,-1,-191.2002,-3.189)" gradientUnits="userSpaceOnUse"><stop id="stop90" offset="0" stop-color="#BED5E1"/><stop id="stop92" offset="1" stop-color="#567B8F"/></linearGradient><linearGradient id="SVGID_4_-9" x1="566.533" x2="566.533" y1="-59.078" y2="-342.41" gradientTransform="matrix(1,0,0,-1,-191.2002,-3.189)" gradientUnits="userSpaceOnUse"><stop id="stop101" offset="0" stop-color="#BED5E1"/><stop id="stop103" offset="1" stop-color="#567B8F"/></linearGradient><linearGradient id="SVGID_5_-1" x1="525.692" x2="525.692" y1="-59.078" y2="-342.409" gradientTransform="matrix(1,0,0,-1,-191.2002,-3.189)" gradientUnits="userSpaceOnUse"><stop id="stop112" offset="0" stop-color="#BED5E1"/><stop id="stop114" offset="1" stop-color="#567B8F"/></linearGradient><linearGradient id="SVGID_6_-8" x1="649.626" x2="649.626" y1="-59.075" y2="-342.415" gradientTransform="matrix(1,0,0,-1,-191.2002,-3.189)" gradientUnits="userSpaceOnUse"><stop id="stop123" offset="0" stop-color="#BED5E1"/><stop id="stop125" offset="1" stop-color="#567B8F"/></linearGradient><linearGradient id="SVGID_7_-8" x1="604.362" x2="604.362" y1="-59.077" y2="-342.412" gradientTransform="matrix(1,0,0,-1,-191.2002,-3.189)" gradientUnits="userSpaceOnUse"><stop id="stop134" offset="0" stop-color="#BED5E1"/><stop id="stop136" offset="1" stop-color="#567B8F"/></linearGradient><linearGradient id="SVGID_8_-5" x1="481.962" x2="481.962" y1="-59.074" y2="-342.417" gradientTransform="matrix(1,0,0,-1,-191.2002,-3.189)" gradientUnits="userSpaceOnUse"><stop id="stop145" offset="0" stop-color="#BED5E1"/><stop id="stop147" offset="1" stop-color="#567B8F"/></linearGradient><linearGradient id="SVGID_9_-8" x1="537.974" x2="537.974" y1="-59.077" y2="-342.413" gradientTransform="matrix(1,0,0,-1,-191.2002,-3.189)" gradientUnits="userSpaceOnUse"><stop id="stop156" offset="0" stop-color="#BED5E1"/><stop id="stop158" offset="1" stop-color="#567B8F"/></linearGradient></defs><metadata id="metadata7"/><g id="layer1" transform="translate(-153.88228,-414.51976)"><g id="g4290"><g id="flowRoot4136-0" fill="#000" fill-opacity="1" stroke="none" stroke-linecap="butt" stroke-linejoin="miter" stroke-opacity="1" stroke-width="1" filter="url(#filter4250)" font-family="DejaVu Sans" font-size="9.69" font-stretch="normal" font-style="normal" font-variant="normal" font-weight="normal" letter-spacing="0" text-anchor="start" transform="matrix(17.642001,0,0,17.642001,-2039.9816,-7634.3176)" word-spacing="0" writing-mode="lr-tb" style="line-height:125%;-inkscape-font-specification:'DejaVu Sans, Normal';text-align:start"><ellipse id="path4154-1" cx="125.375" cy="457.252" fill="#fff" fill-opacity="1" fill-rule="evenodd" stroke="#000" stroke-dasharray="none" stroke-dashoffset="0" stroke-linecap="round" stroke-linejoin="round" stroke-miterlimit="4" stroke-opacity="1" stroke-width=".102" opacity="1" rx=".853" ry=".853"/></g><g id="flowRoot4136" fill="#fff" fill-opacity="1" stroke="#fff" stroke-linecap="butt" stroke-linejoin="miter" stroke-opacity="1" stroke-width="1" font-family="DejaVu Sans" font-size="9.69" font-stretch="normal" font-style="normal" font-variant="normal" font-weight="normal" letter-spacing="0" text-anchor="start" transform="matrix(17.642001,0,0,17.642001,-2040.2735,-7634.6095)" word-spacing="0" writing-mode="lr-tb" style="line-height:125%;-inkscape-font-specification:'DejaVu Sans, Normal';text-align:start"><rect id="rect4270" width="11.874" height="1.882" x="118.674" y="452.817" fill="#999" fill-opacity="1" fill-rule="evenodd" stroke="none" stroke-dasharray="none" stroke-dashoffset="0" stroke-linecap="round" stroke-linejoin="round" stroke-miterlimit="4" stroke-opacity="1" stroke-width="2" opacity="1" ry=".036"/><ellipse id="path4154" cx="125.375" cy="457.252" fill="#b3b3b3" fill-opacity="1" fill-rule="evenodd" stroke="#fff" stroke-dasharray="none" stroke-dashoffset="0" stroke-linecap="round" stroke-linejoin="round" stroke-miterlimit="4" stroke-opacity="1" stroke-width=".102" opacity="1" rx=".853" ry=".853"/><path id="path4238" fill="#fff" fill-opacity="1" stroke="none" stroke-linecap="butt" stroke-linejoin="miter" stroke-opacity="1" stroke-width="1" d="m 120.99475,453.36709 0,-0.1177 c 0,-0.0215 -0.0178,-0.0392 -0.0392,-0.0392 -0.0589,0.0491 -0.15693,0.11771 -0.27463,0.11771 l -0.14713,0 c -0.027,0 -0.049,0.0221 -0.049,0.049 l 0,0.0589 c 0,0.027 0.0221,0.049 0.049,0.049 l 0.0374,0 c -0.0215,0.069 0.005,0.12353 0.0227,0.17808 0.0282,0.0261 0.10728,0.0254 0.12628,-0.012 -0.0325,-0.0254 -0.0601,-0.0503 -0.0386,-0.0855 -0.0239,-0.0245 -0.0113,-0.0671 0.0251,-0.0794 0.10636,0.009 0.19432,0.0711 0.24888,0.11647 0.0215,0 0.0392,-0.0178 0.0392,-0.0392 l 0,-0.1177 c 0.0218,0 0.0392,-0.0175 0.0392,-0.0392 0,-0.0218 -0.0175,-0.0392 -0.0392,-0.0392 z m -0.0392,0.18513 c -0.08,-0.0613 -0.15754,-0.0959 -0.2354,-0.10452 l 0,-0.0828 c 0.0779,-0.009 0.1554,-0.0438 0.2354,-0.10513 l 0,0.29241 z" font-family="FontAwesome" font-size="medium" font-stretch="normal" font-style="normal" font-variant="normal" font-weight="normal" letter-spacing="0" text-anchor="start" word-spacing="0" writing-mode="lr-tb" style="line-height:125%;-inkscape-font-specification:FontAwesome;text-align:start"/><path id="path4240" fill="#fff" fill-opacity="1" stroke="none" stroke-linecap="butt" stroke-linejoin="miter" stroke-opacity="1" stroke-width="1" d="m 121.48517,453.32786 0,0.1177 -0.1177,0 0,-0.1177 0.1177,0 z m 0.0392,0.19616 -0.19617,0 0,0.0392 0.19617,0 0,-0.0392 z m 0,-0.2354 -0.19617,0 0,0.19617 0.19617,0 0,-0.19617 z m 0.19617,0.2354 -0.15693,0 0,0.0392 0.15693,0 0,-0.0392 z m 0,-0.0785 -0.15693,0 0,0.0392 0.15693,0 0,-0.0392 z m 0,-0.0785 -0.15693,0 0,0.0392 0.15693,0 0,-0.0392 z m 0,-0.0785 -0.15693,0 0,0.0392 0.15693,0 0,-0.0392 z m -0.4708,0.29425 c 0,0.0107 -0.009,0.0196 -0.0196,0.0196 -0.0107,0 -0.0196,-0.009 -0.0196,-0.0196 l 0,-0.29425 0.0392,0 0,0.29425 z m 0.51003,0 c 0,0.0107 -0.009,0.0196 -0.0196,0.0196 l -0.45456,0 c 0.002,-0.006 0.003,-0.0129 0.003,-0.0196 l 0,-0.33348 0.4708,0 0,0.33348 z m 0.0392,-0.37272 -0.54927,0 0,0.0392 -0.0785,0 0,0.33348 c 0,0.0325 0.0264,0.0589 0.0588,0.0589 l 0.51004,0 c 0.0325,0 0.0589,-0.0264 0.0589,-0.0589 l 0,-0.37272 z" font-family="FontAwesome" font-size="medium" font-stretch="normal" font-style="normal" font-variant="normal" font-weight="normal" letter-spacing="0" text-anchor="start" word-spacing="0" writing-mode="lr-tb" style="line-height:125%;-inkscape-font-specification:FontAwesome;text-align:start"/><path id="path4242" fill="#fff" fill-opacity="1" stroke="none" stroke-linecap="butt" stroke-linejoin="miter" stroke-opacity="1" stroke-width="1" d="m 122.13942,453.2969 c -0.01,-6.2e-4 -0.0104,0.006 -0.007,0.006 0.003,0 0.001,-0.006 0.007,-0.006 z m 0.0267,0.004 c 0.003,-0.001 0,-0.007 -0.009,-0.003 0.006,-0.002 0.006,0.004 0.009,0.003 z m -0.10759,0.13088 c 0.002,9.2e-4 9.2e-4,0.004 -6.1e-4,0.009 -0.002,0.004 -0.006,0.008 -0.008,0.008 -0.004,-6.1e-4 0.001,-0.004 0.003,-0.008 0.003,-0.004 0.002,-0.01 0.005,-0.009 z m 0.26207,0.11004 c -0.0126,-0.0101 -0.0503,-0.012 -0.0512,0.0126 -0.007,0 -0.0116,6.1e-4 -0.0156,0.006 -0.0153,0.0181 -0.001,0.0543 -0.003,0.0739 -0.001,0.0172 -0.006,0.034 -0.009,0.0512 -0.009,-3.1e-4 -0.008,-0.007 -0.006,-0.0162 0.003,-0.008 0.007,-0.0184 0.007,-0.0282 3.1e-4,-0.009 -6.1e-4,-0.0147 -0.003,-0.0159 -0.002,-0.002 -0.006,0.001 -0.0104,0.009 -0.0104,0.0169 -0.0331,0.0242 -0.0543,0.0267 -0.0208,0.003 -0.0405,6.1e-4 -0.0509,-0.011 -0.003,-0.004 -0.01,0.001 -0.0101,0.002 -9.2e-4,0.002 0.003,0.004 0.007,0.0104 0.005,0.009 0.01,0.0221 -0.002,0.0282 3.1e-4,-0.031 -0.01,-0.0328 -0.0196,-0.0518 0.0196,-0.002 0.0224,-0.023 0.0129,-0.0319 -0.007,-0.008 -0.0496,-0.0389 -0.0604,-0.0512 -0.005,-0.006 -0.0123,-0.008 -0.015,-0.0147 -0.007,-0.0147 -0.0113,-0.0359 -0.003,-0.0509 0.002,-0.003 0.003,-0.002 0.002,0.004 -0.007,0.0322 0.0141,0.0585 0.0187,0.0451 0.003,-0.009 3.1e-4,-0.0257 0.002,-0.0392 0.003,-0.0233 0.0242,-0.0684 0.0337,-0.0708 -0.0144,-0.027 0.0169,-0.0478 0.0166,-0.0714 -3.1e-4,-0.0153 0.0135,0.0187 0.0273,0.026 0.0153,0.008 0.0322,-0.0153 0.0561,-0.027 0.007,-0.003 0.0153,-0.007 0.0147,-0.0101 -0.003,-0.0138 -0.0313,0.0172 -0.057,0.0181 -0.0116,3e-4 -0.0159,-0.002 -0.0205,-0.007 -0.0135,-0.0132 0.002,-0.002 0.0218,-0.006 0.009,-0.002 0.0119,-0.003 0.0215,-0.007 0.01,-0.004 0.0205,-0.01 0.0313,-0.0126 0.008,-0.002 0.007,-0.008 0.004,-0.009 -0.002,-9.2e-4 -0.004,-9.2e-4 -0.006,0.002 -0.005,0.008 -0.0264,0.0126 -0.0331,0.0147 -0.009,0.003 -0.0184,0.005 -0.0313,0.005 -0.0196,-6.1e-4 -0.015,-0.01 -0.0291,-0.0178 -0.004,-0.002 -0.003,-0.008 0.002,-0.0138 0.003,-0.003 0.0107,-0.005 0.0147,-0.011 6.1e-4,-9.2e-4 0.006,-0.006 0.01,-0.009 0.001,-9.2e-4 0.001,-0.0248 -0.0107,-0.0251 -0.0104,-3e-4 -0.0135,0.008 -0.0132,0.0156 6.2e-4,0.008 0.005,0.0147 0.008,0.0147 0.006,-3.1e-4 3e-4,0.006 -0.003,0.007 -0.005,0.002 -0.0107,-0.0178 -0.01,-0.027 6.1e-4,-0.01 0.006,-0.027 0.0178,-0.0267 0.011,3.1e-4 0.019,0.0141 0.0187,0.038 0,0.004 0.0178,-0.002 0.0239,0.005 0.004,0.004 -0.0147,-0.0423 0.0276,-0.0457 0.011,0.002 0.0218,0.006 0.0261,0.0316 -0.002,0.002 0.003,0.0202 -0.004,0.0224 -0.008,0.003 -0.0135,-3e-4 -0.009,-0.008 0.003,-0.008 0,-0.0282 -0.0168,-0.027 -0.0172,9.2e-4 -0.0147,0.0313 -0.0101,0.0319 0.005,6.1e-4 0.0162,0.009 0.0245,0.0104 0.0267,0.005 0.007,0.0205 0.0104,0.0392 0.004,0.0208 0.0178,0.0153 0.0303,0.0711 0.002,0.003 0.0129,0.006 0.023,0.0493 0.009,0.0383 -0.004,0.0665 0.0178,0.0641 0.005,-3.1e-4 0.0123,-0.002 0.0153,-0.0129 0.008,-0.0282 -0.004,-0.0622 -0.0166,-0.0852 -0.007,-0.0135 -0.0138,-0.0224 -0.0175,-0.0254 0.0141,0.008 0.0322,0.0349 0.0365,0.0546 0.006,0.026 0.009,0.0371 9.2e-4,0.0647 0.005,0.002 0.0169,0.007 0.0169,0.0129 z m -0.19249,-0.25349 c 0,9.2e-4 -6.1e-4,9.2e-4 -9.2e-4,9.2e-4 -0.003,0 -0.003,-0.002 -0.002,-0.006 6.1e-4,-0.003 -9.2e-4,-0.005 -0.002,-0.005 -0.002,6.2e-4 -0.002,-0.005 0.001,-0.004 0.002,6.1e-4 0.006,0.006 0.004,0.0138 z m 0.12843,0.0604 c 9.2e-4,0.004 -0.002,0.009 -0.006,0.009 -0.006,-0.001 -0.0205,-0.0159 -0.0141,-0.023 0.002,-0.002 0.003,0.004 0.009,0.008 0.005,0.003 0.009,9.2e-4 0.0104,0.007 z m -0.0546,-0.0653 c 0,9.2e-4 -0.003,0.002 -0.003,0.002 -6.1e-4,-0.005 -0.003,-0.009 -0.006,-0.01 -0.002,-6.1e-4 -0.003,-0.002 9.2e-4,-0.003 0.002,-3.1e-4 0.008,0.003 0.008,0.0107 z m 0.0166,-0.0714 c -0.002,0.003 -0.009,0.002 -0.0101,0.003 -0.006,0.002 -0.008,0.008 -0.0104,0.006 -0.003,-0.002 0.002,-0.005 0.003,-0.009 9.2e-4,-0.003 -0.002,-0.01 0.004,-0.0101 0.002,0 0.005,0.002 0.007,0.005 0.003,0.002 0.007,0.004 0.006,0.006 z m 0.17318,0.41103 c -0.009,-0.006 -0.0294,-0.0113 -0.0313,-0.0512 -0.008,0.007 -0.007,0.0441 0.015,0.0515 0.0245,0.008 0.0398,0.0221 -0.006,0.0377 -0.03,0.0104 -0.0352,0.0135 -0.0591,0.0334 -0.0242,0.0202 -0.0604,0.0123 -0.054,-0.03 0.003,-0.0224 0.005,-0.0405 -3.1e-4,-0.0598 -0.003,-0.009 -0.004,-0.0215 -0.002,-0.0297 0.003,-0.0166 0.0123,-0.0215 0.0212,-0.006 0.006,0.0101 0.007,0.0218 0.027,0.0227 0.0306,0.001 0.0368,-0.0297 0.0466,-0.0313 0.006,-9.2e-4 0.0132,-0.0196 0.008,-0.0497 -0.006,-0.0322 -0.0245,-0.0828 -0.0487,-0.10851 -0.0202,-0.0215 -0.0328,-0.0402 -0.0408,-0.0668 -0.007,-0.0227 -0.0104,-0.0444 -0.009,-0.0656 0.002,-0.027 -0.0132,-0.0647 -0.0371,-0.0825 -0.015,-0.011 -0.0386,-0.0172 -0.0598,-0.0169 -0.0119,0 -0.0233,0.002 -0.0319,0.006 -0.0356,0.0193 -0.0405,0.0469 -0.0398,0.0785 6.1e-4,0.0294 0.002,0.0631 0.005,0.095 -0.004,0.0147 -0.0248,0.0426 -0.038,0.0598 -0.0178,0.0175 -0.0267,0.0515 -0.0383,0.0812 -0.006,0.0156 -0.0162,0.023 -0.0172,0.0432 -3e-4,0.006 0,0.0205 0.005,0.0162 0.0209,-0.0159 0.0469,0.0245 0.0864,0.0864 0.007,0.012 0.034,0.0619 -0.0126,0.0684 -0.0156,0.002 -0.0408,-0.009 -0.065,-0.015 -0.0218,-0.005 -0.0441,-0.009 -0.0564,-0.012 -0.008,-0.002 -0.0107,-0.005 -0.0113,-0.008 -0.002,-0.008 0.009,-0.0199 0.01,-0.0297 6.1e-4,-0.01 -0.003,-0.015 -0.007,-0.023 -0.003,-0.008 -0.004,-0.0141 -0.002,-0.0175 0.002,-0.003 0.006,-0.004 0.0132,-0.003 0.009,9.2e-4 0.0196,-9.2e-4 0.0254,-0.005 0.009,-0.006 0.0141,-0.0178 0.01,-0.0325 0,0.0144 -0.005,0.0196 -0.0166,0.0264 -0.011,0.006 -0.0279,9.2e-4 -0.0359,0.008 -0.009,0.008 0.003,0.0291 0.002,0.0447 -9.2e-4,0.0116 -0.0132,0.0251 -0.008,0.0371 0.006,0.012 0.0316,0.0135 0.0585,0.019 0.0386,0.008 0.061,0.0221 0.0788,0.0227 0.0261,9.2e-4 0.03,-0.0251 0.0705,-0.026 0.0119,-3.1e-4 0.0236,-9.2e-4 0.0353,-0.001 0.0132,0 0.0264,0 0.0398,3.1e-4 0.027,9.2e-4 0.0178,0.015 0.0353,0.0239 0.015,0.008 0.0417,0.005 0.0481,-0.002 0.009,-0.008 0.0319,-0.0279 0.0494,-0.0368 0.0224,-0.0113 0.0742,-0.0306 0.0365,-0.0539 z" font-family="FontAwesome" font-size="medium" font-stretch="normal" font-style="normal" font-variant="normal" font-weight="normal" letter-spacing="0" text-anchor="start" word-spacing="0" writing-mode="lr-tb" style="line-height:125%;-inkscape-font-specification:FontAwesome;text-align:start"/><path id="path4244" fill="#fff" fill-opacity="1" stroke="none" stroke-linecap="butt" stroke-linejoin="miter" stroke-opacity="1" stroke-width="1" d="m 122.89758,453.38671 c 0,-0.0107 -0.009,-0.0196 -0.0196,-0.0196 -0.0107,0 -0.0196,0.009 -0.0196,0.0196 l 0,0.0392 c 0,0.0757 -0.0616,0.13732 -0.13732,0.13732 -0.0757,0 -0.13732,-0.0616 -0.13732,-0.13732 l 0,-0.0392 c 0,-0.0107 -0.009,-0.0196 -0.0196,-0.0196 -0.0107,0 -0.0196,0.009 -0.0196,0.0196 l 0,0.0392 c 0,0.0907 0.0687,0.16552 0.15693,0.17533 l 0,0.0405 -0.0785,0 c -0.0107,0 -0.0196,0.009 -0.0196,0.0196 0,0.0107 0.009,0.0196 0.0196,0.0196 l 0.19616,0 c 0.0107,0 0.0196,-0.009 0.0196,-0.0196 0,-0.0107 -0.009,-0.0196 -0.0196,-0.0196 l -0.0785,0 0,-0.0405 c 0.0883,-0.01 0.15693,-0.0846 0.15693,-0.17533 l 0,-0.0392 z m -0.0785,-0.1177 c 0,-0.0539 -0.0441,-0.0981 -0.0981,-0.0981 -0.054,0 -0.0981,0.0441 -0.0981,0.0981 l 0,0.15693 c 0,0.0539 0.0441,0.0981 0.0981,0.0981 0.054,0 0.0981,-0.0441 0.0981,-0.0981 l 0,-0.15693 z" font-family="FontAwesome" font-size="medium" font-stretch="normal" font-style="normal" font-variant="normal" font-weight="normal" letter-spacing="0" text-anchor="start" word-spacing="0" writing-mode="lr-tb" style="line-height:125%;-inkscape-font-specification:FontAwesome;text-align:start"/><path id="path4246" fill="#fff" fill-opacity="1" stroke="none" stroke-linecap="butt" stroke-linejoin="miter" stroke-opacity="1" stroke-width="1" d="m 123.18586,453.31897 c -0.006,0 -0.0117,-0.006 -0.0117,-0.012 0,-0.006 0.005,-0.012 0.0117,-0.012 0.007,0 0.0119,0.006 0.0119,0.012 0,0.006 -0.005,0.012 -0.0119,0.012 z m 0.12935,0 c -0.007,0 -0.012,-0.006 -0.012,-0.012 0,-0.006 0.005,-0.012 0.012,-0.012 0.006,0 0.0116,0.006 0.0116,0.012 0,0.006 -0.005,0.012 -0.0116,0.012 z m -0.24889,0.0564 c -0.0175,0 -0.0316,0.0141 -0.0316,0.0313 l 0,0.1318 c 0,0.0175 0.0141,0.0316 0.0316,0.0316 0.0175,0 0.0313,-0.0141 0.0313,-0.0316 l 0,-0.1318 c 0,-0.0172 -0.0141,-0.0313 -0.0313,-0.0313 z m 0.3249,0.006 -0.28138,0 0,0.20414 c 0,0.0187 0.015,0.0337 0.0337,0.0337 l 0.0227,0 3.1e-4,0.0696 c 0,0.0175 0.0141,0.0316 0.0313,0.0316 0.0175,0 0.0316,-0.0141 0.0316,-0.0316 l 0,-0.0696 0.0423,0 0,0.0696 c 0,0.0175 0.0141,0.0316 0.0316,0.0316 0.0175,0 0.0316,-0.0141 0.0316,-0.0316 l 0,-0.0696 0.023,0 c 0.0184,0 0.0334,-0.015 0.0334,-0.0337 l 0,-0.20414 z m -0.0711,-0.12414 0.0218,-0.0401 c 0.001,-0.002 6.2e-4,-0.005 -0.002,-0.006 -0.002,-9.2e-4 -0.005,-3.1e-4 -0.006,0.002 l -0.0221,0.0405 c -0.0187,-0.008 -0.0395,-0.0129 -0.0616,-0.0129 -0.0221,0 -0.0429,0.005 -0.0616,0.0129 l -0.0221,-0.0405 c -0.001,-0.002 -0.004,-0.003 -0.006,-0.002 -0.002,0.001 -0.003,0.004 -0.002,0.006 l 0.0218,0.0401 c -0.0432,0.0221 -0.0723,0.0644 -0.0723,0.1131 l 0.28352,0 c 0,-0.0487 -0.0291,-0.091 -0.072,-0.1131 z m 0.14621,0.14958 c 0,-0.0175 -0.0141,-0.0313 -0.0316,-0.0313 -0.0172,0 -0.0313,0.0138 -0.0313,0.0313 l 0,0.1318 c 0,0.0175 0.0141,0.0316 0.0313,0.0316 0.0175,0 0.0316,-0.0141 0.0316,-0.0316 l 0,-0.1318 z" font-family="FontAwesome" font-size="medium" font-stretch="normal" font-style="normal" font-variant="normal" font-weight="normal" letter-spacing="0" text-anchor="start" word-spacing="0" writing-mode="lr-tb" style="line-height:125%;-inkscape-font-specification:FontAwesome;text-align:start"/><path id="path4248" fill="#fff" fill-opacity="1" stroke="none" stroke-linecap="butt" stroke-linejoin="miter" stroke-opacity="1" stroke-width="1" d="m 124.0303,453.54333 c -0.0181,-0.006 -0.0343,-0.0184 -0.0484,-0.0386 -0.0141,-0.0202 -0.0212,-0.0432 -0.0212,-0.0684 0,-0.0233 0.007,-0.0444 0.0199,-0.0634 0.007,-0.0107 0.019,-0.0227 0.0349,-0.0362 -0.0104,-0.0129 -0.0212,-0.0233 -0.0319,-0.0307 -0.019,-0.0132 -0.0408,-0.0199 -0.0653,-0.0199 -0.015,0 -0.0328,0.004 -0.053,0.0104 -0.0202,0.007 -0.0349,0.0104 -0.0438,0.0104 -0.007,0 -0.0211,-0.003 -0.0423,-0.009 -0.0215,-0.006 -0.0392,-0.009 -0.0543,-0.009 -0.0352,0 -0.0641,0.0147 -0.087,0.0441 -0.023,0.0297 -0.0346,0.0677 -0.0346,0.11464 0,0.0503 0.0153,0.10145 0.0451,0.15417 0.0303,0.0527 0.0607,0.0794 0.0923,0.0794 0.0101,0 0.0236,-0.003 0.0405,-0.0104 0.0165,-0.007 0.0313,-0.0101 0.0435,-0.0101 0.0126,0 0.0282,0.003 0.0463,0.01 0.0184,0.006 0.0325,0.01 0.0429,0.01 0.026,0 0.0524,-0.0199 0.0788,-0.0601 0.0178,-0.0267 0.03,-0.0524 0.0377,-0.0766 z m -0.11525,-0.35954 c 0,-0.002 -3e-4,-0.004 -3e-4,-0.006 -3.1e-4,-0.002 -9.2e-4,-0.004 -0.002,-0.007 -0.0356,0.008 -0.0613,0.0233 -0.0766,0.0454 -0.0153,0.0221 -0.0233,0.0484 -0.0239,0.0788 0.0144,-0.001 0.0248,-0.003 0.0319,-0.005 0.011,-0.004 0.0221,-0.011 0.0331,-0.0221 0.0129,-0.0129 0.0224,-0.027 0.0285,-0.0423 0.006,-0.015 0.009,-0.0291 0.009,-0.0417 z" font-family="FontAwesome" font-size="medium" font-stretch="normal" font-style="normal" font-variant="normal" font-weight="normal" letter-spacing="0" text-anchor="start" word-spacing="0" writing-mode="lr-tb" style="line-height:125%;-inkscape-font-specification:FontAwesome;text-align:start"/><path id="path4250" fill="#fff" fill-opacity="1" stroke="none" stroke-linecap="butt" stroke-linejoin="miter" stroke-opacity="1" stroke-width="1" d="m 124.38095,453.47927 -0.20904,0 0,0.17073 0.20904,0.0288 0,-0.19954 z m 0,-0.22774 -0.20904,0.0288 0,0.17318 0.20904,0 0,-0.202 z m 0.301,0.22774 -0.27801,0 0,0.20261 0.27801,0.0383 0,-0.24092 z m 0,-0.26912 -0.27801,0.0383 0,0.20506 0.27801,0 0,-0.24338 z" font-family="FontAwesome" font-size="medium" font-stretch="normal" font-style="normal" font-variant="normal" font-weight="normal" letter-spacing="0" text-anchor="start" word-spacing="0" writing-mode="lr-tb" style="line-height:125%;-inkscape-font-specification:FontAwesome;text-align:start"/><path id="path4252" fill="#fff" fill-opacity="1" stroke="none" stroke-linecap="butt" stroke-linejoin="miter" stroke-opacity="1" stroke-width="1" d="m 125.36808,453.47498 c 0,0.005 -0.005,0.01 -0.01,0.01 l -0.49042,0 c -0.005,0 -0.01,-0.005 -0.01,-0.01 l 0,-0.25502 c 0,-0.005 0.005,-0.01 0.01,-0.01 l 0.49042,0 c 0.005,0 0.01,0.005 0.01,0.01 l 0,0.25502 z m 0.0392,-0.25502 c 0,-0.027 -0.0221,-0.049 -0.049,-0.049 l -0.49042,0 c -0.027,0 -0.049,0.0221 -0.049,0.049 l 0,0.33349 c 0,0.027 0.0221,0.049 0.049,0.049 l 0.16674,0 c 0,0.0267 -0.0196,0.0475 -0.0196,0.0589 0,0.0107 0.009,0.0196 0.0196,0.0196 l 0.15694,0 c 0.0107,0 0.0196,-0.009 0.0196,-0.0196 0,-0.0107 -0.0196,-0.0328 -0.0196,-0.0589 l 0.16674,0 c 0.027,0 0.049,-0.0221 0.049,-0.049 l 0,-0.33349 z" font-family="FontAwesome" font-size="medium" font-stretch="normal" font-style="normal" font-variant="normal" font-weight="normal" letter-spacing="0" text-anchor="start" word-spacing="0" writing-mode="lr-tb" style="line-height:125%;-inkscape-font-specification:FontAwesome;text-align:start"/><path id="path4254" fill="#fff" fill-opacity="1" stroke="none" stroke-linecap="butt" stroke-linejoin="miter" stroke-opacity="1" stroke-width="1" d="m 125.68731,453.60249 c 0,0.0135 -0.011,0.0245 -0.0245,0.0245 -0.0135,0 -0.0245,-0.011 -0.0245,-0.0245 0,-0.0135 0.011,-0.0245 0.0245,-0.0245 0.0135,0 0.0245,0.011 0.0245,0.0245 z m 0.0638,-0.049 c 0,0.005 -0.005,0.01 -0.01,0.01 l -0.15694,0 c -0.005,0 -0.01,-0.005 -0.01,-0.01 l 0,-0.21579 c 0,-0.005 0.005,-0.01 0.01,-0.01 l 0.15694,0 c 0.005,0 0.01,0.005 0.01,0.01 l 0,0.21579 z m -0.0588,-0.25992 c 0,0.003 -0.002,0.005 -0.005,0.005 l -0.049,0 c -0.003,0 -0.005,-0.002 -0.005,-0.005 0,-0.003 0.002,-0.005 0.005,-0.005 l 0.049,0 c 0.003,0 0.005,0.002 0.005,0.005 z m 0.0883,-0.005 c 0,-0.0214 -0.0178,-0.0392 -0.0392,-0.0392 l -0.15694,0 c -0.0215,0 -0.0392,0.0178 -0.0392,0.0392 l 0,0.31387 c 0,0.0215 0.0178,0.0392 0.0392,0.0392 l 0.15694,0 c 0.0215,0 0.0392,-0.0178 0.0392,-0.0392 l 0,-0.31387 z" font-family="FontAwesome" font-size="medium" font-stretch="normal" font-style="normal" font-variant="normal" font-weight="normal" letter-spacing="0" text-anchor="start" word-spacing="0" writing-mode="lr-tb" style="line-height:125%;-inkscape-font-specification:FontAwesome;text-align:start"/><path id="path4256" fill="#fff" fill-opacity="1" stroke="none" stroke-linecap="butt" stroke-linejoin="miter" stroke-opacity="1" stroke-width="1" d="m 126.36731,453.2874 -0.0956,-0.0956 c -0.0113,-0.0113 -0.034,-0.0208 -0.0503,-0.0208 l -0.27464,0 c -0.0162,0 -0.0294,0.0132 -0.0294,0.0294 l 0,0.49042 c 0,0.0162 0.0132,0.0294 0.0294,0.0294 l 0.41196,0 c 0.0162,0 0.0294,-0.0132 0.0294,-0.0294 l 0,-0.35311 c 0,-0.0162 -0.01,-0.0389 -0.0208,-0.0503 z m -0.13609,-0.0748 c 0.005,0.002 0.0104,0.005 0.0126,0.007 l 0.0959,0.0959 c 0.002,0.002 0.005,0.007 0.007,0.0126 l -0.11525,0 0,-0.11525 z m 0.1177,0.46835 -0.39234,0 0,-0.47081 0.23541,0 0,0.12751 c 0,0.0162 0.0132,0.0294 0.0294,0.0294 l 0.12751,0 0,0.31387 z m -0.31387,-0.26483 0,0.0196 c 0,0.006 0.004,0.01 0.01,0.01 l 0.21578,0 c 0.006,0 0.01,-0.004 0.01,-0.01 l 0,-0.0196 c 0,-0.006 -0.004,-0.01 -0.01,-0.01 l -0.21578,0 c -0.006,0 -0.01,0.004 -0.01,0.01 z m 0.22559,0.0687 -0.21578,0 c -0.006,0 -0.01,0.004 -0.01,0.01 l 0,0.0196 c 0,0.006 0.004,0.01 0.01,0.01 l 0.21578,0 c 0.006,0 0.01,-0.004 0.01,-0.01 l 0,-0.0196 c 0,-0.006 -0.004,-0.01 -0.01,-0.01 z m 0,0.0785 -0.21578,0 c -0.006,0 -0.01,0.004 -0.01,0.01 l 0,0.0196 c 0,0.006 0.004,0.01 0.01,0.01 l 0.21578,0 c 0.006,0 0.01,-0.004 0.01,-0.01 l 0,-0.0196 c 0,-0.006 -0.004,-0.01 -0.01,-0.01 z" font-family="FontAwesome" font-size="medium" font-stretch="normal" font-style="normal" font-variant="normal" font-weight="normal" letter-spacing="0" text-anchor="start" word-spacing="0" writing-mode="lr-tb" style="line-height:125%;-inkscape-font-specification:FontAwesome;text-align:start"/><path id="path4258" fill="#fff" fill-opacity="1" stroke="none" stroke-linecap="butt" stroke-linejoin="miter" stroke-opacity="1" stroke-width="1" d="m 126.71474,453.59973 c 0.004,-0.004 0.004,-0.0101 0,-0.0141 l -0.12046,-0.12046 0.12046,-0.12046 c 0.004,-0.004 0.004,-0.0101 0,-0.0141 l -0.0153,-0.0153 c -0.004,-0.004 -0.0101,-0.004 -0.0141,0 l -0.14284,0.14283 c -0.004,0.004 -0.004,0.0101 0,0.0141 l 0.14284,0.14284 c 0.004,0.004 0.0101,0.004 0.0141,0 l 0.0153,-0.0153 z m 0.18115,-0.32705 c 0.002,-0.005 -0.002,-0.0107 -0.007,-0.0123 l -0.019,-0.005 c -0.005,-0.002 -0.0104,0.002 -0.012,0.007 l -0.11433,0.3957 c -0.002,0.005 0.002,0.0107 0.007,0.0123 l 0.019,0.005 c 0.005,0.002 0.0104,-0.002 0.0119,-0.007 l 0.11433,-0.39571 z m 0.20138,0.19954 c 0.004,-0.004 0.004,-0.0101 0,-0.0141 l -0.14283,-0.14283 c -0.004,-0.004 -0.0101,-0.004 -0.0141,0 l -0.0153,0.0153 c -0.004,0.004 -0.004,0.0101 0,0.0141 l 0.12046,0.12046 -0.12046,0.12046 c -0.004,0.004 -0.004,0.0101 0,0.0141 l 0.0153,0.0153 c 0.004,0.004 0.0101,0.004 0.0141,0 l 0.14283,-0.14284 z" font-family="FontAwesome" font-size="medium" font-stretch="normal" font-style="normal" font-variant="normal" font-weight="normal" letter-spacing="0" text-anchor="start" word-spacing="0" writing-mode="lr-tb" style="line-height:125%;-inkscape-font-specification:FontAwesome;text-align:start"/><path id="path4260" fill="#fff" fill-opacity="1" stroke="none" stroke-linecap="butt" stroke-linejoin="miter" stroke-opacity="1" stroke-width="1" d="m 127.55168,453.53414 c 0,-0.0739 -0.0638,-0.0987 -0.12016,-0.12046 -0.0435,-0.0169 -0.0809,-0.0313 -0.0809,-0.0638 0,-0.0279 0.027,-0.0472 0.0659,-0.0472 0.046,0 0.0831,0.0328 0.0834,0.0331 0.002,0.002 0.005,0.003 0.008,0.002 0.003,-3.1e-4 0.006,-0.002 0.007,-0.005 l 0.0248,-0.0448 c 0.002,-0.004 0.002,-0.008 -0.002,-0.0116 -0.001,-0.001 -0.0343,-0.0349 -0.0965,-0.042 l 0,-0.054 c 0,-0.006 -0.004,-0.01 -0.01,-0.01 l -0.0414,0 c -0.005,0 -0.01,0.004 -0.01,0.01 l 0,0.0552 c -0.0641,0.0123 -0.1082,0.0589 -0.1082,0.11525 0,0.0769 0.0687,0.10452 0.12383,0.12628 0.0414,0.0166 0.0776,0.031 0.0776,0.0604 0,0.0346 -0.0325,0.0506 -0.0625,0.0506 -0.0543,0 -0.0972,-0.0411 -0.0978,-0.0414 -0.002,-0.002 -0.005,-0.003 -0.007,-0.003 -0.003,3.1e-4 -0.006,0.002 -0.007,0.004 l -0.0316,0.0414 c -0.003,0.004 -0.002,0.009 6.1e-4,0.0126 0.002,0.002 0.0408,0.0448 0.11249,0.0549 l 0,0.0536 c 0,0.006 0.005,0.01 0.01,0.01 l 0.0414,0 c 0.006,0 0.01,-0.004 0.01,-0.01 l 0,-0.0536 c 0.065,-0.0107 0.10973,-0.0601 0.10973,-0.1226 z" font-family="FontAwesome" font-size="medium" font-stretch="normal" font-style="normal" font-variant="normal" font-weight="normal" letter-spacing="0" text-anchor="start" word-spacing="0" writing-mode="lr-tb" style="line-height:125%;-inkscape-font-specification:FontAwesome;text-align:start"/><path id="path4262" fill="#fff" fill-opacity="1" stroke="none" stroke-linecap="butt" stroke-linejoin="miter" stroke-opacity="1" stroke-width="1" d="m 120.66647,454.13215 c -0.0159,-0.023 -0.0248,-0.0506 -0.0248,-0.0785 0,-0.007 6.2e-4,-0.0135 0.002,-0.0202 -0.0132,0.005 -0.0267,0.007 -0.0408,0.007 -0.0414,0 -0.0733,-0.026 -0.0797,-0.026 -0.0389,0 -0.038,0.0834 -0.038,0.10819 0,0.034 0.0288,0.0487 0.0595,0.0487 l 0.0411,0 c 0.0205,-0.0245 0.0494,-0.0383 0.0812,-0.0392 z m 0.32828,0.19525 c 0,-0.0693 -0.0162,-0.17564 -0.10606,-0.17564 -0.0104,0 -0.0484,0.0426 -0.10973,0.0426 -0.0613,0 -0.0993,-0.0426 -0.10973,-0.0426 -0.0898,0 -0.10605,0.10636 -0.10605,0.17564 0,0.0496 0.0328,0.0794 0.0818,0.0794 l 0.26789,0 c 0.049,0 0.0818,-0.0297 0.0818,-0.0794 z m -0.31387,-0.39142 c 0,-0.0432 -0.0353,-0.0785 -0.0785,-0.0785 -0.0432,0 -0.0785,0.0353 -0.0785,0.0785 0,0.0432 0.0353,0.0785 0.0785,0.0785 0.0432,0 0.0785,-0.0353 0.0785,-0.0785 z m 0.21578,0.1177 c 0,-0.065 -0.0527,-0.1177 -0.1177,-0.1177 -0.065,0 -0.1177,0.0527 -0.1177,0.1177 0,0.065 0.0527,0.1177 0.1177,0.1177 0.065,0 0.1177,-0.0527 0.1177,-0.1177 z m 0.17656,0.069 c 0,-0.0248 9.1e-4,-0.10819 -0.038,-0.10819 -0.006,0 -0.0383,0.026 -0.0797,0.026 -0.0141,0 -0.0276,-0.002 -0.0408,-0.007 9.2e-4,0.007 0.002,0.0135 0.002,0.0202 0,0.0279 -0.009,0.0555 -0.0248,0.0785 0.0319,9.2e-4 0.0607,0.0147 0.0812,0.0392 l 0.0411,0 c 0.0306,0 0.0595,-0.0147 0.0595,-0.0487 z m -0.0392,-0.18666 c 0,-0.0432 -0.0353,-0.0785 -0.0785,-0.0785 -0.0432,0 -0.0785,0.0353 -0.0785,0.0785 0,0.0432 0.0353,0.0785 0.0785,0.0785 0.0432,0 0.0785,-0.0353 0.0785,-0.0785 z" font-family="FontAwesome" font-size="medium" font-stretch="normal" font-style="normal" font-variant="normal" font-weight="normal" letter-spacing="0" text-anchor="start" word-spacing="0" writing-mode="lr-tb" style="line-height:125%;-inkscape-font-specification:FontAwesome;text-align:start"/><path id="path4264" fill="#fff" fill-opacity="1" stroke="none" stroke-linecap="butt" stroke-linejoin="miter" stroke-opacity="1" stroke-width="1" d="m 121.6818,454.13215 c 0,-0.12997 -0.10544,-0.23541 -0.2354,-0.23541 -0.12997,0 -0.23541,0.10544 -0.23541,0.23541 0,0.1039 0.0674,0.19218 0.16092,0.22344 0.012,0.002 0.0162,-0.005 0.0162,-0.0113 0,-0.006 -3.1e-4,-0.0242 -3.1e-4,-0.0438 0,0 -0.0656,0.0141 -0.0794,-0.0279 0,0 -0.0107,-0.0273 -0.026,-0.0343 0,0 -0.0215,-0.0147 0.002,-0.0144 0,0 0.0233,0.002 0.0362,0.0242 0.0205,0.0362 0.0549,0.0257 0.0683,0.0196 0.002,-0.0153 0.008,-0.0254 0.015,-0.0316 -0.0524,-0.006 -0.10728,-0.026 -0.10728,-0.11616 0,-0.0258 0.009,-0.0469 0.0242,-0.0632 -0.002,-0.006 -0.0104,-0.03 0.002,-0.0625 0.0199,-0.006 0.065,0.0242 0.065,0.0242 0.0187,-0.005 0.0389,-0.008 0.0589,-0.008 0.0199,0 0.0401,0.003 0.0589,0.008 0,0 0.045,-0.0303 0.0647,-0.0242 0.0129,0.0325 0.005,0.0564 0.002,0.0625 0.015,0.0163 0.0242,0.0374 0.0242,0.0632 0,0.0904 -0.0552,0.11034 -0.10759,0.11616 0.009,0.007 0.0159,0.0215 0.0159,0.0435 0,0.0316 0,0.057 0,0.0647 0,0.006 0.004,0.0135 0.0159,0.0113 0.0935,-0.0313 0.16092,-0.11954 0.16092,-0.22344 z" font-family="FontAwesome" font-size="medium" font-stretch="normal" font-style="normal" font-variant="normal" font-weight="normal" letter-spacing="0" text-anchor="start" word-spacing="0" writing-mode="lr-tb" style="line-height:125%;-inkscape-font-specification:FontAwesome;text-align:start"/><path id="path4266" fill="#fff" fill-opacity="1" stroke="none" stroke-linecap="butt" stroke-linejoin="miter" stroke-opacity="1" stroke-width="1" d="m 121.89774,454.29889 c 0,-0.006 -0.004,-0.01 -0.01,-0.01 l -0.0588,0 c -0.006,0 -0.01,0.004 -0.01,0.01 l 0,0.0589 c 0,0.006 0.004,0.01 0.01,0.01 l 0.0588,0 c 0.006,0 0.01,-0.004 0.01,-0.01 l 0,-0.0589 z m 0.1177,-0.0392 c 0,-0.006 -0.004,-0.01 -0.01,-0.01 l -0.0588,0 c -0.006,0 -0.01,0.004 -0.01,0.01 l 0,0.0981 c 0,0.006 0.004,0.01 0.01,0.01 l 0.0588,0 c 0.006,0 0.01,-0.004 0.01,-0.01 l 0,-0.0981 z m 0.1177,-0.0785 c 0,-0.006 -0.004,-0.01 -0.01,-0.01 l -0.0588,0 c -0.006,0 -0.01,0.004 -0.01,0.01 l 0,0.17655 c 0,0.006 0.004,0.01 0.01,0.01 l 0.0588,0 c 0.006,0 0.01,-0.004 0.01,-0.01 l 0,-0.17655 z m 0.1177,-0.1177 c 0,-0.006 -0.004,-0.01 -0.01,-0.01 l -0.0588,0 c -0.006,0 -0.01,0.004 -0.01,0.01 l 0,0.29425 c 0,0.006 0.004,0.01 0.01,0.01 l 0.0588,0 c 0.006,0 0.01,-0.004 0.01,-0.01 l 0,-0.29425 z m 0.1177,-0.15694 c 0,-0.006 -0.004,-0.01 -0.01,-0.01 l -0.0588,0 c -0.006,0 -0.01,0.004 -0.01,0.01 l 0,0.45119 c 0,0.006 0.004,0.01 0.01,0.01 l 0.0588,0 c 0.006,0 0.01,-0.004 0.01,-0.01 l 0,-0.45119 z" font-family="FontAwesome" font-size="medium" font-stretch="normal" font-style="normal" font-variant="normal" font-weight="normal" letter-spacing="0" text-anchor="start" word-spacing="0" writing-mode="lr-tb" style="line-height:125%;-inkscape-font-specification:FontAwesome;text-align:start"/><path id="path4268" fill="#fff" fill-opacity="1" stroke="none" stroke-linecap="butt" stroke-linejoin="miter" stroke-opacity="1" stroke-width="1" d="m 123.1336,454.32831 -0.58851,0 0,-0.43157 -0.0392,0 0,0.47081 0.62774,0 0,-0.0392 z m -0.0392,-0.38252 c 0,-0.006 -0.004,-0.01 -0.01,-0.01 l -0.13333,0 c -0.009,0 -0.0132,0.0104 -0.007,0.0169 l 0.0371,0.0371 -0.14223,0.14223 -0.0714,-0.0714 c -0.004,-0.004 -0.0101,-0.004 -0.0141,0 l -0.17931,0.17931 0.0588,0.0588 0.12751,-0.12751 0.0714,0.0714 c 0.004,0.004 0.0101,0.004 0.0141,0 l 0.19403,-0.19403 0.0371,0.0371 c 0.006,0.006 0.0169,0.002 0.0169,-0.007 l 0,-0.13333 z" font-family="FontAwesome" font-size="medium" font-stretch="normal" font-style="normal" font-variant="normal" font-weight="normal" letter-spacing="0" text-anchor="start" word-spacing="0" writing-mode="lr-tb" style="line-height:125%;-inkscape-font-specification:FontAwesome;text-align:start"/><g id="text4231" fill="#fff" fill-opacity="1" stroke="none" stroke-linecap="butt" stroke-linejoin="miter" stroke-opacity="1" stroke-width="1" font-family="DejaVu Sans" font-size=".549" font-stretch="normal" font-style="normal" font-variant="normal" font-weight="normal" letter-spacing="0" text-anchor="start" transform="translate(-0.08772583,-0.07267417)" word-spacing="0" writing-mode="lr-tb" style="line-height:125%;-inkscape-font-specification:'DejaVu Sans, Normal';text-align:start"><path id="path4236" fill="#fff" d="m 123.73494,453.90645 -0.29425,0.11771 0,0.0392 0.0392,0 c 0,0.0107 0.009,0.0196 0.0211,0.0196 l 0.46774,0 c 0.0116,0 0.0211,-0.009 0.0211,-0.0196 l 0.0392,0 0,-0.0392 -0.29425,-0.11771 z m -0.21578,0.19617 0,0.2354 -0.0181,0 c -0.0117,0 -0.0211,0.009 -0.0211,0.0196 l 0,0.0196 0.51004,0 0,-0.0196 c 0,-0.0107 -0.01,-0.0196 -0.0211,-0.0196 l -0.0181,0 0,-0.2354 -0.0785,0 0,0.2354 -0.0392,0 0,-0.2354 -0.0785,0 0,0.2354 -0.0392,0 0,-0.2354 -0.0785,0 0,0.2354 -0.0392,0 0,-0.2354 -0.0785,0 z m 0.48888,0.29426 -0.5462,0 c -0.0116,0 -0.0211,0.009 -0.0211,0.0196 l 0,0.0392 0.5885,0 0,-0.0392 c 0,-0.0107 -0.01,-0.0196 -0.0212,-0.0196 z"/></g></g></g><g id="g4284"><g id="flowRoot4136-0-4" fill="#000" fill-opacity="1" stroke="none" stroke-linecap="butt" stroke-linejoin="miter" stroke-opacity="1" stroke-width="1" filter="url(#filter4250-6)" font-family="DejaVu Sans" font-size="9.69" font-stretch="normal" font-style="normal" font-variant="normal" font-weight="normal" letter-spacing="0" text-anchor="start" transform="matrix(17.642001,0,0,17.642001,-2123.0794,-7635.1966)" word-spacing="0" writing-mode="lr-tb" style="line-height:125%;-inkscape-font-specification:'DejaVu Sans, Normal';text-align:start"><ellipse id="path4154-1-4" cx="125.375" cy="457.252" fill="#fff" fill-opacity="1" fill-rule="evenodd" stroke="#000" stroke-dasharray="none" stroke-dashoffset="0" stroke-linecap="round" stroke-linejoin="round" stroke-miterlimit="4" stroke-opacity="1" stroke-width=".102" opacity="1" rx=".853" ry=".853"/></g><g id="flowRoot4136-4" fill="#fff" fill-opacity="1" stroke="#fff" stroke-linecap="butt" stroke-linejoin="miter" stroke-opacity="1" stroke-width="1" font-family="DejaVu Sans" font-size="9.69" font-stretch="normal" font-style="normal" font-variant="normal" font-weight="normal" letter-spacing="0" text-anchor="start" transform="matrix(17.642001,0,0,17.642001,-2123.3713,-7635.4885)" word-spacing="0" writing-mode="lr-tb" style="line-height:125%;-inkscape-font-specification:'DejaVu Sans, Normal';text-align:start"><ellipse id="path4154-4" cx="125.375" cy="457.252" fill="#fff" fill-opacity="1" fill-rule="evenodd" stroke="#fff" stroke-dasharray="none" stroke-dashoffset="0" stroke-linecap="round" stroke-linejoin="round" stroke-miterlimit="4" stroke-opacity="1" stroke-width=".102" opacity="1" rx=".853" ry=".853"/></g></g></g></svg>