<svg xmlns="http://www.w3.org/2000/svg" xmlns:svg="http://www.w3.org/2000/svg" xmlns:xlink="http://www.w3.org/1999/xlink" id="svg2" width="10mm" height="10mm" version="1.1" viewBox="0 0 35.433 35.433"><defs id="defs4"><filter id="filter4250" width="1.158" height="1.158" x="-.079" y="-.079" color-interpolation-filters="sRGB"><feGaussianBlur id="feGaussianBlur4252" stdDeviation=".056"/></filter><linearGradient id="linearGradient3353" x1="288.494" x2="288.494" y1="55.888" y2="339.222" gradientUnits="userSpaceOnUse" xlink:href="#SVGID_1_"/><linearGradient id="linearGradient3355" x1="251.211" x2="251.211" y1="55.888" y2="339.222" gradientUnits="userSpaceOnUse" xlink:href="#SVGID_2_"/><linearGradient id="linearGradient3357" x1="293.225" x2="293.225" y1="55.888" y2="339.222" gradientUnits="userSpaceOnUse" xlink:href="#SVGID_3_"/><linearGradient id="linearGradient3359" x1="375.334" x2="375.334" y1="55.888" y2="339.222" gradientUnits="userSpaceOnUse" xlink:href="#SVGID_4_"/><linearGradient id="linearGradient3361" x1="334.494" x2="334.494" y1="55.888" y2="339.222" gradientUnits="userSpaceOnUse" xlink:href="#SVGID_5_"/><linearGradient id="linearGradient3363" x1="458.427" x2="458.427" y1="55.887" y2="339.224" gradientUnits="userSpaceOnUse" xlink:href="#SVGID_6_"/><linearGradient id="linearGradient3365" x1="413.163" x2="413.163" y1="55.888" y2="339.221" gradientUnits="userSpaceOnUse" xlink:href="#SVGID_7_"/><linearGradient id="linearGradient3367" x1="290.762" x2="290.762" y1="55.887" y2="339.224" gradientUnits="userSpaceOnUse" xlink:href="#SVGID_8_"/><linearGradient id="linearGradient3369" x1="346.773" x2="346.773" y1="55.888" y2="339.221" gradientUnits="userSpaceOnUse" xlink:href="#SVGID_9_"/><linearGradient id="SVGID_1_" x1="288.494" x2="288.494" y1="55.888" y2="339.222" gradientUnits="userSpaceOnUse"><stop id="stop261" offset="0" stop-color="#BED5E1"/><stop id="stop263" offset="1" stop-color="#567B8F"/></linearGradient><linearGradient id="SVGID_2_" x1="251.211" x2="251.211" y1="55.888" y2="339.222" gradientUnits="userSpaceOnUse"><stop id="stop268" offset="0" stop-color="#BED5E1"/><stop id="stop270" offset="1" stop-color="#567B8F"/></linearGradient><linearGradient id="SVGID_3_" x1="293.225" x2="293.225" y1="55.888" y2="339.222" gradientUnits="userSpaceOnUse"><stop id="stop275" offset="0" stop-color="#BED5E1"/><stop id="stop277" offset="1" stop-color="#567B8F"/></linearGradient><linearGradient id="SVGID_4_" x1="375.334" x2="375.334" y1="55.888" y2="339.222" gradientUnits="userSpaceOnUse"><stop id="stop282" offset="0" stop-color="#BED5E1"/><stop id="stop284" offset="1" stop-color="#567B8F"/></linearGradient><linearGradient id="SVGID_5_" x1="334.494" x2="334.494" y1="55.888" y2="339.222" gradientUnits="userSpaceOnUse"><stop id="stop289" offset="0" stop-color="#BED5E1"/><stop id="stop291" offset="1" stop-color="#567B8F"/></linearGradient><linearGradient id="SVGID_6_" x1="458.427" x2="458.427" y1="55.887" y2="339.224" gradientUnits="userSpaceOnUse"><stop id="stop296" offset="0" stop-color="#BED5E1"/><stop id="stop298" offset="1" stop-color="#567B8F"/></linearGradient><linearGradient id="SVGID_7_" x1="413.163" x2="413.163" y1="55.888" y2="339.221" gradientUnits="userSpaceOnUse"><stop id="stop303" offset="0" stop-color="#BED5E1"/><stop id="stop305" offset="1" stop-color="#567B8F"/></linearGradient><linearGradient id="SVGID_8_" x1="290.762" x2="290.762" y1="55.887" y2="339.224" gradientUnits="userSpaceOnUse"><stop id="stop310" offset="0" stop-color="#BED5E1"/><stop id="stop312" offset="1" stop-color="#567B8F"/></linearGradient><linearGradient id="SVGID_9_" x1="346.773" x2="346.773" y1="55.888" y2="339.221" gradientUnits="userSpaceOnUse"><stop id="stop317" offset="0" stop-color="#BED5E1"/><stop id="stop319" offset="1" stop-color="#567B8F"/></linearGradient><linearGradient id="SVGID_1_-4" x1="479.694" x2="479.694" y1="-59.078" y2="-342.412" gradientTransform="matrix(1,0,0,-1,-191.2002,-3.189)" gradientUnits="userSpaceOnUse"><stop id="stop68" offset="0" stop-color="#BED5E1"/><stop id="stop70" offset="1" stop-color="#567B8F"/></linearGradient><linearGradient id="SVGID_2_-2" x1="442.411" x2="442.411" y1="-59.077" y2="-342.414" gradientTransform="matrix(1,0,0,-1,-191.2002,-3.189)" gradientUnits="userSpaceOnUse"><stop id="stop79" offset="0" stop-color="#BED5E1"/><stop id="stop81" offset="1" stop-color="#567B8F"/></linearGradient><linearGradient id="SVGID_3_-6" x1="484.425" x2="484.425" y1="-59.077" y2="-342.415" gradientTransform="matrix(1,0,0,-1,-191.2002,-3.189)" gradientUnits="userSpaceOnUse"><stop id="stop90" offset="0" stop-color="#BED5E1"/><stop id="stop92" offset="1" stop-color="#567B8F"/></linearGradient><linearGradient id="SVGID_4_-9" x1="566.533" x2="566.533" y1="-59.078" y2="-342.41" gradientTransform="matrix(1,0,0,-1,-191.2002,-3.189)" gradientUnits="userSpaceOnUse"><stop id="stop101" offset="0" stop-color="#BED5E1"/><stop id="stop103" offset="1" stop-color="#567B8F"/></linearGradient><linearGradient id="SVGID_5_-1" x1="525.692" x2="525.692" y1="-59.078" y2="-342.409" gradientTransform="matrix(1,0,0,-1,-191.2002,-3.189)" gradientUnits="userSpaceOnUse"><stop id="stop112" offset="0" stop-color="#BED5E1"/><stop id="stop114" offset="1" stop-color="#567B8F"/></linearGradient><linearGradient id="SVGID_6_-8" x1="649.626" x2="649.626" y1="-59.075" y2="-342.415" gradientTransform="matrix(1,0,0,-1,-191.2002,-3.189)" gradientUnits="userSpaceOnUse"><stop id="stop123" offset="0" stop-color="#BED5E1"/><stop id="stop125" offset="1" stop-color="#567B8F"/></linearGradient><linearGradient id="SVGID_7_-8" x1="604.362" x2="604.362" y1="-59.077" y2="-342.412" gradientTransform="matrix(1,0,0,-1,-191.2002,-3.189)" gradientUnits="userSpaceOnUse"><stop id="stop134" offset="0" stop-color="#BED5E1"/><stop id="stop136" offset="1" stop-color="#567B8F"/></linearGradient><linearGradient id="SVGID_8_-5" x1="481.962" x2="481.962" y1="-59.074" y2="-342.417" gradientTransform="matrix(1,0,0,-1,-191.2002,-3.189)" gradientUnits="userSpaceOnUse"><stop id="stop145" offset="0" stop-color="#BED5E1"/><stop id="stop147" offset="1" stop-color="#567B8F"/></linearGradient><linearGradient id="SVGID_9_-8" x1="537.974" x2="537.974" y1="-59.077" y2="-342.413" gradientTransform="matrix(1,0,0,-1,-191.2002,-3.189)" gradientUnits="userSpaceOnUse"><stop id="stop156" offset="0" stop-color="#BED5E1"/><stop id="stop158" offset="1" stop-color="#567B8F"/></linearGradient></defs><metadata id="metadata7"/><g id="layer1" transform="translate(-153.88228,-414.51976)"><g id="g4290"><g id="flowRoot4136-0" fill="#000" fill-opacity="1" stroke="none" stroke-linecap="butt" stroke-linejoin="miter" stroke-opacity="1" stroke-width="1" filter="url(#filter4250)" font-family="DejaVu Sans" font-size="9.69" font-stretch="normal" font-style="normal" font-variant="normal" font-weight="normal" letter-spacing="0" text-anchor="start" transform="matrix(17.642001,0,0,17.642001,-2039.9816,-7634.3176)" word-spacing="0" writing-mode="lr-tb" style="line-height:125%;-inkscape-font-specification:'DejaVu Sans, Normal';text-align:start"><ellipse id="path4154-1" cx="125.375" cy="457.252" fill="#fff" fill-opacity="1" fill-rule="evenodd" stroke="#000" stroke-dasharray="none" stroke-dashoffset="0" stroke-linecap="round" stroke-linejoin="round" stroke-miterlimit="4" stroke-opacity="1" stroke-width=".102" opacity="1" rx=".853" ry=".853"/></g><g id="flowRoot4136" fill="#fff" fill-opacity="1" stroke="#fff" stroke-linecap="butt" stroke-linejoin="miter" stroke-opacity="1" stroke-width="1" font-family="DejaVu Sans" font-size="9.69" font-stretch="normal" font-style="normal" font-variant="normal" font-weight="normal" letter-spacing="0" text-anchor="start" transform="matrix(17.642001,0,0,17.642001,-2040.2735,-7634.6095)" word-spacing="0" writing-mode="lr-tb" style="line-height:125%;-inkscape-font-specification:'DejaVu Sans, Normal';text-align:start"><ellipse id="path4154" cx="125.375" cy="457.252" fill="#b3b3b3" fill-opacity="1" fill-rule="evenodd" stroke="#fff" stroke-dasharray="none" stroke-dashoffset="0" stroke-linecap="round" stroke-linejoin="round" stroke-miterlimit="4" stroke-opacity="1" stroke-width=".102" opacity="1" rx=".853" ry=".853"/><g id="text4231-4" fill="#fff" fill-opacity="1" stroke="none" stroke-linecap="butt" stroke-linejoin="miter" stroke-opacity="1" stroke-width="1" font-family="DejaVu Sans" font-size=".549" font-stretch="normal" font-style="normal" font-variant="normal" font-weight="normal" letter-spacing="0" text-anchor="start" transform="matrix(1.7427963,0,0,1.7427963,-90.269474,-334.35718)" word-spacing="0" writing-mode="lr-tb" style="line-height:125%;-inkscape-font-specification:'DejaVu Sans, Normal';text-align:start"><path id="path4236-2" fill="#fff" d="m 123.73494,453.90645 -0.29425,0.11771 0,0.0392 0.0392,0 c 0,0.0107 0.009,0.0196 0.0211,0.0196 l 0.46774,0 c 0.0116,0 0.0211,-0.009 0.0211,-0.0196 l 0.0392,0 0,-0.0392 -0.29425,-0.11771 z m -0.21578,0.19617 0,0.2354 -0.0181,0 c -0.0117,0 -0.0211,0.009 -0.0211,0.0196 l 0,0.0196 0.51004,0 0,-0.0196 c 0,-0.0107 -0.01,-0.0196 -0.0211,-0.0196 l -0.0181,0 0,-0.2354 -0.0785,0 0,0.2354 -0.0392,0 0,-0.2354 -0.0785,0 0,0.2354 -0.0392,0 0,-0.2354 -0.0785,0 0,0.2354 -0.0392,0 0,-0.2354 -0.0785,0 z m 0.48888,0.29426 -0.5462,0 c -0.0116,0 -0.0211,0.009 -0.0211,0.0196 l 0,0.0392 0.5885,0 0,-0.0392 c 0,-0.0107 -0.01,-0.0196 -0.0212,-0.0196 z"/></g></g></g></g></svg>